{"asset":{"version":"2.0","generator":"THREE.GLTFExporter"},"scenes":[{"name":"AuxScene","nodes":[2]}],"scene":0,"nodes":[{"name":"BuildingMaster_1992193759214461461000000000_0","mesh":0},{"name":"BuildingMaster_1992193759214461461000000000_1","mesh":1},{"children":[0,1]}],"bufferViews":[{"buffer":0,"byteOffset":0,"byteLength":864,"target":34962,"byteStride":12},{"buffer":0,"byteOffset":864,"byteLength":864,"target":34962,"byteStride":12},{"buffer":0,"byteOffset":1728,"byteLength":576,"target":34962,"byteStride":8},{"buffer":0,"byteOffset":2304,"byteLength":360,"target":34962,"byteStride":12},{"buffer":0,"byteOffset":2664,"byteLength":360,"target":34962,"byteStride":12},{"buffer":0,"byteOffset":3024,"byteLength":240,"target":34962,"byteStride":8}],"buffers":[{"byteLength":3264,"uri":"data:application/octet-stream;base64,"}],"accessors":[{"bufferView":0,"componentType":5126,"count":72,"max":[-3043397.5,4048992.5,3863124],"min":[-3043409.25,4048980.75,3863117],"type":"VEC3"},{"bufferView":1,"componentType":5126,"count":72,"max":[0.9965335130691528,0,0.9966846108436584],"min":[-0.9964503645896912,0,-0.99662184715271],"type":"VEC3"},{"bufferView":2,"componentType":5126,"count":72,"max":[0.76318359375,0.84375],"min":[0,0],"type":"VEC2"},{"bufferView":3,"componentType":5126,"count":30,"max":[-3043397.5,4048992.5,3863124],"min":[-3043409.25,4048980.75,3863124],"type":"VEC3"},{"bufferView":4,"componentType":5126,"count":30,"max":[0,1,0],"min":[0,1,0],"type":"VEC3"},{"bufferView":5,"componentType":5126,"count":30,"max":[10,10],"min":[-3.814551591873169,0],"type":"VEC2"}],"materials":[{"pbrMetallicRoughness":{"metallicFactor":0.5,"roughnessFactor":0.5,"baseColorTexture":{"index":0}},"emissiveFactor":[1,1,1],"name":"BuildingMaster_1992193759214461461000000000_Volume1"},{"pbrMetallicRoughness":{"metallicFactor":0.5,"roughnessFactor":0.5,"baseColorTexture":{"index":1}},"name":"Roof7"}],"textures":[{"sampler":0,"source":0},{"sampler":1,"source":1}],"samplers":[{"magFilter":9729,"minFilter":9987,"wrapS":10497,"wrapT":10497},{"magFilter":9729,"minFilter":9987,"wrapS":10497,"wrapT":10497}],"images":[{"mimeType":"image/jpeg","uri":"file:///H:/OpenLab/%EB%8F%84%EB%A1%9C3D_%EC%97%AC%EC%9D%98%EB%8F%84%20%EB%8D%B0%EC%9D%B4%ED%84%B0/%EA%B1%B4%EB%AC%BC%ED%86%B5%ED%95%A9%EC%A0%95%EB%B3%B4%EB%A7%88%EC%8A%A4%ED%84%B0/Resource/BuildingMaster_1992193759214461461000000000_Volume1_Diffuse.jpg"},{"mimeType":"image/jpeg","uri":"file:///H:/OpenLab/%EB%8F%84%EB%A1%9C3D_%EC%97%AC%EC%9D%98%EB%8F%84%20%EB%8D%B0%EC%9D%B4%ED%84%B0/%EA%B1%B4%EB%AC%BC%ED%86%B5%ED%95%A9%EC%A0%95%EB%B3%B4%EB%A7%88%EC%8A%A4%ED%84%B0/Resource/Roof7_Diffuse.jpg"}],"meshes":[{"primitives":[{"mode":4,"attributes":{"POSITION":0,"NORMAL":1,"TEXCOORD_0":2},"material":0}]},{"primitives":[{"mode":4,"attributes":{"POSITION":3,"NORMAL":4,"TEXCOORD_0":5},"material":1}]}]}