{"asset":{"version":"2.0","generator":"THREE.GLTFExporter"},"scenes":[{"name":"AuxScene","nodes":[2]}],"scene":0,"nodes":[{"name":"BuildingMaster_1980193664764462845000000000_0","mesh":0},{"name":"BuildingMaster_1980193664764462845000000000_1","mesh":1},{"children":[0,1]}],"bufferViews":[{"buffer":0,"byteOffset":0,"byteLength":288,"target":34962,"byteStride":12},{"buffer":0,"byteOffset":288,"byteLength":288,"target":34962,"byteStride":12},{"buffer":0,"byteOffset":576,"byteLength":192,"target":34962,"byteStride":8},{"buffer":0,"byteOffset":768,"byteLength":72,"target":34962,"byteStride":12},{"buffer":0,"byteOffset":840,"byteLength":72,"target":34962,"byteStride":12},{"buffer":0,"byteOffset":912,"byteLength":48,"target":34962,"byteStride":8}],"buffers":[{"byteLength":960,"uri":"data:application/octet-stream;base64,"}],"accessors":[{"bufferView":0,"componentType":5126,"count":24,"max":[-3043240.75,4049018.75,3863238.25],"min":[-3043315,4048935.5,3863227.75],"type":"VEC3"},{"bufferView":1,"componentType":5126,"count":24,"max":[0.7924132347106934,0,0.7881665825843811],"min":[-0.7881794571876526,0,-0.7858269810676575],"type":"VEC3"},{"bufferView":2,"componentType":5126,"count":24,"max":[1,0.9921875],"min":[0,0],"type":"VEC2"},{"bufferView":3,"componentType":5126,"count":6,"max":[-3043240.75,4049018.75,3863238.25],"min":[-3043315,4048935.5,3863238.25],"type":"VEC3"},{"bufferView":4,"componentType":5126,"count":6,"max":[0,1,0],"min":[0,1,0],"type":"VEC3"},{"bufferView":5,"componentType":5126,"count":6,"max":[10,10],"min":[0,0],"type":"VEC2"}],"materials":[{"pbrMetallicRoughness":{"metallicFactor":0.5,"roughnessFactor":0.5,"baseColorTexture":{"index":0}},"emissiveFactor":[1,1,1],"name":"BuildingMaster_1980193664764462845000000000_Volume1"},{"pbrMetallicRoughness":{"metallicFactor":0.5,"roughnessFactor":0.5,"baseColorTexture":{"index":1}},"name":"Roof8"}],"textures":[{"sampler":0,"source":0},{"sampler":1,"source":1}],"samplers":[{"magFilter":9729,"minFilter":9987,"wrapS":10497,"wrapT":10497},{"magFilter":9729,"minFilter":9987,"wrapS":10497,"wrapT":10497}],"images":[{"mimeType":"image/jpeg","uri":"file:///H:/OpenLab/%EB%8F%84%EB%A1%9C3D_%EC%97%AC%EC%9D%98%EB%8F%84%20%EB%8D%B0%EC%9D%B4%ED%84%B0/%EA%B1%B4%EB%AC%BC%ED%86%B5%ED%95%A9%EC%A0%95%EB%B3%B4%EB%A7%88%EC%8A%A4%ED%84%B0/Resource/BuildingMaster_1980193664764462845000000000_Volume1_Diffuse.jpg"},{"mimeType":"image/jpeg","uri":"file:///H:/OpenLab/%EB%8F%84%EB%A1%9C3D_%EC%97%AC%EC%9D%98%EB%8F%84%20%EB%8D%B0%EC%9D%B4%ED%84%B0/%EA%B1%B4%EB%AC%BC%ED%86%B5%ED%95%A9%EC%A0%95%EB%B3%B4%EB%A7%88%EC%8A%A4%ED%84%B0/Resource/Roof8_Diffuse.jpg"}],"meshes":[{"primitives":[{"mode":4,"attributes":{"POSITION":0,"NORMAL":1,"TEXCOORD_0":2},"material":0}]},{"primitives":[{"mode":4,"attributes":{"POSITION":3,"NORMAL":4,"TEXCOORD_0":5},"material":1}]}]}