{"asset":{"version":"2.0","generator":"THREE.GLTFExporter"},"scenes":[{"name":"AuxScene","nodes":[2]}],"scene":0,"nodes":[{"name":"BuildingMaster_0000193649494462112300000000_0","mesh":0},{"name":"BuildingMaster_0000193649494462112300000000_1","mesh":1},{"children":[0,1]}],"bufferViews":[{"buffer":0,"byteOffset":0,"byteLength":360,"target":34962,"byteStride":12},{"buffer":0,"byteOffset":360,"byteLength":360,"target":34962,"byteStride":12},{"buffer":0,"byteOffset":720,"byteLength":240,"target":34962,"byteStride":8},{"buffer":0,"byteOffset":960,"byteLength":108,"target":34962,"byteStride":12},{"buffer":0,"byteOffset":1068,"byteLength":108,"target":34962,"byteStride":12},{"buffer":0,"byteOffset":1176,"byteLength":72,"target":34962,"byteStride":8}],"buffers":[{"byteLength":1248,"uri":"data:application/octet-stream;base64,"}],"accessors":[{"bufferView":0,"componentType":5126,"count":30,"max":[-3043288.25,4049028.25,3863180.75],"min":[-3043297.75,4049017,3863170.25],"type":"VEC3"},{"bufferView":1,"componentType":5126,"count":30,"max":[0.7904564738273621,0,0.7905564904212952],"min":[-0.7914404273033142,0,-0.7910476326942444],"type":"VEC3"},{"bufferView":2,"componentType":5126,"count":30,"max":[0.9892578125,1],"min":[0,0],"type":"VEC2"},{"bufferView":3,"componentType":5126,"count":9,"max":[-3043288.25,4049028.25,3863180.75],"min":[-3043297.75,4049017,3863180.75],"type":"VEC3"},{"bufferView":4,"componentType":5126,"count":9,"max":[0,1,0],"min":[0,1,0],"type":"VEC3"},{"bufferView":5,"componentType":5126,"count":9,"max":[10.317575454711914,10],"min":[0,0],"type":"VEC2"}],"materials":[{"pbrMetallicRoughness":{"metallicFactor":0.5,"roughnessFactor":0.5,"baseColorTexture":{"index":0}},"emissiveFactor":[1,1,1],"name":"BuildingMaster_0000193649494462112300000000_Volume1"},{"pbrMetallicRoughness":{"metallicFactor":0.5,"roughnessFactor":0.5,"baseColorTexture":{"index":1}},"name":"Roof7"}],"textures":[{"sampler":0,"source":0},{"sampler":1,"source":1}],"samplers":[{"magFilter":9729,"minFilter":9987,"wrapS":10497,"wrapT":10497},{"magFilter":9729,"minFilter":9987,"wrapS":10497,"wrapT":10497}],"images":[{"mimeType":"image/jpeg","uri":"file:///H:/OpenLab/%EB%8F%84%EB%A1%9C3D_%EC%97%AC%EC%9D%98%EB%8F%84%20%EB%8D%B0%EC%9D%B4%ED%84%B0/%EA%B1%B4%EB%AC%BC%ED%86%B5%ED%95%A9%EC%A0%95%EB%B3%B4%EB%A7%88%EC%8A%A4%ED%84%B0/Resource/BuildingMaster_0000193649494462112300000000_Volume1_Diffuse.jpg"},{"mimeType":"image/jpeg","uri":"file:///H:/OpenLab/%EB%8F%84%EB%A1%9C3D_%EC%97%AC%EC%9D%98%EB%8F%84%20%EB%8D%B0%EC%9D%B4%ED%84%B0/%EA%B1%B4%EB%AC%BC%ED%86%B5%ED%95%A9%EC%A0%95%EB%B3%B4%EB%A7%88%EC%8A%A4%ED%84%B0/Resource/Roof7_Diffuse.jpg"}],"meshes":[{"primitives":[{"mode":4,"attributes":{"POSITION":0,"NORMAL":1,"TEXCOORD_0":2},"material":0}]},{"primitives":[{"mode":4,"attributes":{"POSITION":3,"NORMAL":4,"TEXCOORD_0":5},"material":1}]}]}