# OBJ file generated
mtllib TextureModel_BLD_Body_7.mtl

v 317660.093765 4154949.250000 45.556863
v 317651.293765 4154942.250000 45.556863
v 317656.593765 4154935.250000 45.556863
v 317659.393765 4154930.250000 45.556863
v 317660.193765 4154930.250000 45.556863
v 317663.193765 4154924.950000 45.556863
v 317677.093766 4154907.250000 45.556863
v 317677.793766 4154905.950000 45.556863
v 317680.093766 4154903.350000 45.556863
v 317682.193766 4154900.750000 45.556863
v 317687.693767 4154892.750000 45.556863
v 317689.693767 4154890.350000 45.556863
v 317691.193767 4154889.350000 45.556863
v 317693.893767 4154885.550000 45.556863
v 317703.693768 4154892.450000 45.556863
v 317692.393767 4154907.050000 45.556863
v 317687.293767 4154913.750000 45.556863
v 317685.793767 4154915.350000 45.556863
v 317685.793767 4154916.950000 45.556863
v 317688.093767 4154919.250000 45.556863
v 317688.493767 4154919.750000 45.556863
v 317681.893766 4154926.750000 45.556863
v 317679.293766 4154925.450000 45.556863
v 317675.893766 4154929.450000 45.556863
v 317673.993766 4154932.250000 45.556863
v 317669.693766 4154937.250000 45.556863
v 317668.793766 4154938.450000 45.556863
v 317668.093766 4154939.750000 45.556863
v 317666.493766 4154941.750000 45.556863
v 317660.093765 4154949.250000 30.000000
v 317651.293765 4154942.250000 30.000000
v 317656.593765 4154935.250000 30.000000
v 317659.393765 4154930.250000 30.000000
v 317660.193765 4154930.250000 30.000000
v 317663.193765 4154924.950000 30.000000
v 317677.093766 4154907.250000 30.000000
v 317677.793766 4154905.950000 30.000000
v 317680.093766 4154903.350000 30.000000
v 317682.193766 4154900.750000 30.000000
v 317687.693767 4154892.750000 30.000000
v 317689.693767 4154890.350000 30.000000
v 317691.193767 4154889.350000 30.000000
v 317693.893767 4154885.550000 30.000000
v 317703.693768 4154892.450000 30.000000
v 317692.393767 4154907.050000 30.000000
v 317687.293767 4154913.750000 30.000000
v 317685.793767 4154915.350000 30.000000
v 317685.793767 4154916.950000 30.000000
v 317688.093767 4154919.250000 30.000000
v 317688.493767 4154919.750000 30.000000
v 317681.893766 4154926.750000 30.000000
v 317679.293766 4154925.450000 30.000000
v 317675.893766 4154929.450000 30.000000
v 317673.993766 4154932.250000 30.000000
v 317669.693766 4154937.250000 30.000000
v 317668.793766 4154938.450000 30.000000
v 317668.093766 4154939.750000 30.000000
v 317666.493766 4154941.750000 30.000000

# g
# Face_Normal
vn 0.000000 0.000000 1.000000
vn -0.622524 0.782601 0.000000
vn -0.797258 -0.603638 -0.000000
vn -0.872506 -0.488603 -0.000000
vn 0.000000 -1.000000 0.000000
vn -0.870257 -0.492598 -0.000000
vn -0.786472 -0.617625 -0.000000
vn -0.880471 -0.474100 -0.000000
vn -0.748997 -0.662574 -0.000000
vn -0.777941 -0.628337 -0.000000
vn -0.824042 -0.566529 -0.000000
vn -0.768221 -0.640184 -0.000000
vn -0.554700 -0.832050 -0.000000
vn -0.815180 -0.579207 -0.000000
vn 0.575700 -0.817661 0.000000
vn 0.790808 0.612064 0.000000
vn 0.795704 0.605685 0.000000
vn 0.729537 0.683941 0.000000
vn 1.000000 -0.000000 0.000000
vn 0.707107 -0.707107 0.000000
vn 0.780869 -0.624695 0.000000
vn 0.727589 0.686013 0.000000
vn -0.447214 0.894427 0.000000
vn 0.761939 0.647648 0.000000
vn 0.827476 0.561501 0.000000
vn 0.758185 0.652039 0.000000
vn 0.800000 0.600000 0.000000
vn 0.880471 0.474100 0.000000
vn 0.780869 0.624695 0.000000
vn 0.760687 0.649119 0.000000

# Face_Vertex_Texel
vt 0.000000 0.975830
vt 0.000366 0.913574
vt 0.050049 0.913330
vt 0.082031 0.908936
vt 0.084717 0.912476
vt 0.118896 0.907959
vt 0.246094 0.909668
vt 0.254150 0.908447
vt 0.273804 0.909790
vt 0.292603 0.910400
vt 0.347412 0.907715
vt 0.364990 0.908447
vt 0.374634 0.911743
vt 0.401001 0.910889
vt 0.403442 0.977173
vt 0.299194 0.976440
vt 0.251587 0.976440
vt 0.239258 0.975220
vt 0.232056 0.980591
vt 0.229614 0.998413
vt 0.228760 1.000000
vt 0.174683 0.996216
vt 0.171631 0.980469
vt 0.141968 0.978882
vt 0.122925 0.979980
vt 0.085693 0.977783
vt 0.077271 0.977783
vt 0.068970 0.979126
vt 0.054565 0.978882
vt 0.405396 1.000000
vt 0.405396 0.937500
vt 0.451050 0.937500
vt 0.451050 1.000000
vt 0.451660 1.000000
vt 0.451660 0.937500
vt 0.487671 0.937500
vt 0.487671 1.000000
vt 0.488281 1.000000
vt 0.488281 0.937500
vt 0.512451 0.937500
vt 0.512451 1.000000
vt 0.513062 1.000000
vt 0.513062 0.937500
vt 0.518066 0.937500
vt 0.518066 1.000000
vt 0.518677 1.000000
vt 0.518677 0.937500
vt 0.544312 0.937500
vt 0.544312 1.000000
vt 0.544922 1.000000
vt 0.544922 0.956421
vt 0.607422 0.956421
vt 0.607422 1.000000
vt 0.608032 1.000000
vt 0.608032 0.937500
vt 0.615723 0.937500
vt 0.615723 1.000000
vt 0.616333 1.000000
vt 0.616333 0.937500
vt 0.631714 0.937500
vt 0.631714 1.000000
vt 0.632324 1.000000
vt 0.632324 0.937500
vt 0.647217 0.937500
vt 0.647217 1.000000
vt 0.647827 1.000000
vt 0.647827 0.937500
vt 0.687500 0.937500
vt 0.687500 1.000000
vt 0.688110 1.000000
vt 0.688110 0.937500
vt 0.702148 0.937500
vt 0.702148 1.000000
vt 0.702759 1.000000
vt 0.702759 0.937500
vt 0.711670 0.937500
vt 0.711670 1.000000
vt 0.712280 1.000000
vt 0.712280 0.937500
vt 0.732300 0.937500
vt 0.732300 1.000000
vt 0.732910 1.000000
vt 0.732910 0.937500
vt 0.781494 0.937500
vt 0.781494 1.000000
vt 0.782104 1.000000
vt 0.782104 0.947144
vt 0.844604 0.947144
vt 0.844604 1.000000
vt 0.845215 1.000000
vt 0.845215 0.937500
vt 0.879883 0.937500
vt 0.879883 1.000000
vt 0.880493 1.000000
vt 0.880493 0.937500
vt 0.890869 0.937500
vt 0.890869 1.000000
vt 0.891479 1.000000
vt 0.891479 0.937500
vt 0.899536 0.937500
vt 0.899536 1.000000
vt 0.900146 1.000000
vt 0.900146 0.937500
vt 0.914673 0.937500
vt 0.914673 1.000000
vt 0.915283 1.000000
vt 0.915283 0.937500
vt 0.919678 0.937500
vt 0.919678 1.000000
vt 0.920288 1.000000
vt 0.920288 0.937500
vt 0.959595 0.937500
vt 0.959595 1.000000
vt 0.960205 1.000000
vt 0.960205 0.937500
vt 0.973389 0.937500
vt 0.973389 1.000000
vt 0.973999 1.000000
vt 0.973999 0.937500
vt 0.996338 0.937500
vt 0.996338 1.000000
vt 0.000000 0.905518
vt 0.000000 0.843018
vt 0.015015 0.843018
vt 0.015015 0.905518
vt 0.015625 0.905518
vt 0.015625 0.843018
vt 0.043213 0.843018
vt 0.043213 0.905518
vt 0.043823 0.905518
vt 0.043823 0.843018
vt 0.051514 0.843018
vt 0.051514 0.905518
vt 0.052124 0.905518
vt 0.052124 0.843018
vt 0.059814 0.843018
vt 0.059814 0.905518
vt 0.060425 0.905518
vt 0.060425 0.843018
vt 0.072266 0.843018
vt 0.072266 0.905518
vt 0.072876 0.905518
vt 0.072876 0.843018
vt 0.113159 0.843018
vt 0.113159 0.905518

usemtl texture
f 29/29/1 1/1/1 2/2/1
f 29/29/1 2/2/1 3/3/1
f 29/29/1 3/3/1 4/4/1
f 29/29/1 4/4/1 5/5/1
f 29/29/1 5/5/1 6/6/1
f 29/29/1 6/6/1 7/7/1
f 29/29/1 7/7/1 8/8/1
f 29/29/1 8/8/1 9/9/1
f 29/29/1 9/9/1 10/10/1
f 29/29/1 10/10/1 11/11/1
f 29/29/1 11/11/1 12/12/1
f 29/29/1 12/12/1 13/13/1
f 29/29/1 13/13/1 14/14/1
f 14/14/1 15/15/1 16/16/1
f 14/14/1 16/16/1 17/17/1
f 14/14/1 17/17/1 18/18/1
f 19/19/1 20/20/1 21/21/1
f 19/19/1 21/21/1 22/22/1
f 19/19/1 22/22/1 23/23/1
f 19/19/1 23/23/1 24/24/1
f 24/24/1 25/25/1 26/26/1
f 27/27/1 28/28/1 29/29/1
f 27/27/1 29/29/1 14/14/1
f 18/18/1 19/19/1 24/24/1
f 18/18/1 24/24/1 26/26/1
f 26/26/1 27/27/1 14/14/1
f 26/26/1 14/14/1 18/18/1
f 2/33/2 1/30/2 30/31/2
f 2/33/2 30/31/2 31/32/2
f 3/37/3 2/34/3 31/35/3
f 3/37/3 31/35/3 32/36/3
f 4/41/4 3/38/4 32/39/4
f 4/41/4 32/39/4 33/40/4
f 5/45/5 4/42/5 33/43/5
f 5/45/5 33/43/5 34/44/5
f 6/49/6 5/46/6 34/47/6
f 6/49/6 34/47/6 35/48/6
f 7/53/7 6/50/7 35/51/7
f 7/53/7 35/51/7 36/52/7
f 8/57/8 7/54/8 36/55/8
f 8/57/8 36/55/8 37/56/8
f 9/61/9 8/58/9 37/59/9
f 9/61/9 37/59/9 38/60/9
f 10/65/10 9/62/10 38/63/10
f 10/65/10 38/63/10 39/64/10
f 11/69/11 10/66/11 39/67/11
f 11/69/11 39/67/11 40/68/11
f 12/73/12 11/70/12 40/71/12
f 12/73/12 40/71/12 41/72/12
f 13/77/13 12/74/13 41/75/13
f 13/77/13 41/75/13 42/76/13
f 14/81/14 13/78/14 42/79/14
f 14/81/14 42/79/14 43/80/14
f 15/85/15 14/82/15 43/83/15
f 15/85/15 43/83/15 44/84/15
f 16/89/16 15/86/16 44/87/16
f 16/89/16 44/87/16 45/88/16
f 17/93/17 16/90/17 45/91/17
f 17/93/17 45/91/17 46/92/17
f 18/97/18 17/94/18 46/95/18
f 18/97/18 46/95/18 47/96/18
f 19/101/19 18/98/19 47/99/19
f 19/101/19 47/99/19 48/100/19
f 20/105/20 19/102/20 48/103/20
f 20/105/20 48/103/20 49/104/20
f 21/109/21 20/106/21 49/107/21
f 21/109/21 49/107/21 50/108/21
f 22/113/22 21/110/22 50/111/22
f 22/113/22 50/111/22 51/112/22
f 23/117/23 22/114/23 51/115/23
f 23/117/23 51/115/23 52/116/23
f 24/121/24 23/118/24 52/119/24
f 24/121/24 52/119/24 53/120/24
f 25/125/25 24/122/25 53/123/25
f 25/125/25 53/123/25 54/124/25
f 26/129/26 25/126/26 54/127/26
f 26/129/26 54/127/26 55/128/26
f 27/133/27 26/130/27 55/131/27
f 27/133/27 55/131/27 56/132/27
f 28/137/28 27/134/28 56/135/28
f 28/137/28 56/135/28 57/136/28
f 29/141/29 28/138/29 57/139/29
f 29/141/29 57/139/29 58/140/29
f 1/145/30 29/142/30 58/143/30
f 1/145/30 58/143/30 30/144/30
