# OBJ file generated
mtllib TextureModel_BLD_Body_11.mtl

v 317548.793759 4155065.250000 46.152941
v 317546.393759 4155064.250000 46.152941
v 317543.193759 4155061.950000 46.152941
v 317541.093759 4155059.450000 46.152941
v 317540.293759 4155058.750000 46.152941
v 317585.693761 4155001.450000 46.152941
v 317631.193764 4154944.150000 46.152941
v 317640.693764 4154951.250000 46.152941
v 317631.293764 4154964.150000 46.152941
v 317633.593764 4154965.950000 46.152941
v 317633.993764 4154966.250000 46.152941
v 317626.193763 4154975.450000 46.152941
v 317623.093763 4154974.450000 46.152941
v 317614.693763 4154985.650000 46.152941
v 317618.893763 4154989.950000 46.152941
v 317606.693762 4155005.250000 46.152941
v 317601.793762 4155002.750000 46.152941
v 317599.993762 4155004.250000 46.152941
v 317598.593762 4155006.250000 46.152941
v 317591.893761 4155014.250000 46.152941
v 317589.793761 4155016.850000 46.152941
v 317588.493761 4155019.550000 46.152941
v 317589.593761 4155022.250000 46.152941
v 317587.693761 4155025.650000 46.152941
v 317586.793761 4155026.550000 46.152941
v 317583.893761 4155029.750000 46.152941
v 317572.493760 4155042.050000 46.152941
v 317571.993760 4155042.850000 46.152941
v 317568.693760 4155046.750000 46.152941
v 317567.793760 4155046.750000 46.152941
v 317565.493760 4155045.950000 46.152941
v 317549.893759 4155065.650000 46.152941
v 317548.793759 4155065.250000 30.000000
v 317546.393759 4155064.250000 30.000000
v 317543.193759 4155061.950000 30.000000
v 317541.093759 4155059.450000 30.000000
v 317540.293759 4155058.750000 30.000000
v 317585.693761 4155001.450000 30.000000
v 317631.193764 4154944.150000 30.000000
v 317640.693764 4154951.250000 30.000000
v 317631.293764 4154964.150000 30.000000
v 317633.593764 4154965.950000 30.000000
v 317633.993764 4154966.250000 30.000000
v 317626.193763 4154975.450000 30.000000
v 317623.093763 4154974.450000 30.000000
v 317614.693763 4154985.650000 30.000000
v 317618.893763 4154989.950000 30.000000
v 317606.693762 4155005.250000 30.000000
v 317601.793762 4155002.750000 30.000000
v 317599.993762 4155004.250000 30.000000
v 317598.593762 4155006.250000 30.000000
v 317591.893761 4155014.250000 30.000000
v 317589.793761 4155016.850000 30.000000
v 317588.493761 4155019.550000 30.000000
v 317589.593761 4155022.250000 30.000000
v 317587.693761 4155025.650000 30.000000
v 317586.793761 4155026.550000 30.000000
v 317583.893761 4155029.750000 30.000000
v 317572.493760 4155042.050000 30.000000
v 317571.993760 4155042.850000 30.000000
v 317568.693760 4155046.750000 30.000000
v 317567.793760 4155046.750000 30.000000
v 317565.493760 4155045.950000 30.000000
v 317549.893759 4155065.650000 30.000000
v 317601.993762 4155000.050000 52.000000
v 317601.993762 4154998.750000 52.000000
v 317602.893762 4154996.350000 52.000000
v 317603.093762 4154996.150000 52.000000
v 317603.193762 4154995.850000 52.000000
v 317604.493762 4154995.850000 52.000000
v 317605.693762 4154996.950000 52.000000
v 317605.793762 4154997.350000 52.000000
v 317606.193762 4154997.450000 52.000000
v 317605.593762 4154998.850000 52.000000
v 317603.293762 4155000.350000 52.000000
v 317602.393762 4155000.250000 52.000000
v 317601.993762 4155000.050000 46.152941
v 317601.993762 4154998.750000 46.152941
v 317602.893762 4154996.350000 46.152941
v 317603.093762 4154996.150000 46.152941
v 317603.193762 4154995.850000 46.152941
v 317604.493762 4154995.850000 46.152941
v 317605.693762 4154996.950000 46.152941
v 317605.793762 4154997.350000 46.152941
v 317606.193762 4154997.450000 46.152941
v 317605.593762 4154998.850000 46.152941
v 317603.293762 4155000.350000 46.152941
v 317602.393762 4155000.250000 46.152941

# g
# Face_Normal
vn -0.000000 0.000000 1.000000
vn -0.384615 0.923077 0.000000
vn -0.583636 0.812015 0.000000
vn -0.765705 0.643192 0.000000
vn -0.658505 0.752577 0.000000
vn -0.783796 -0.621018 -0.000000
vn -0.783130 -0.621858 -0.000000
vn 0.598650 -0.801011 0.000000
vn 0.808194 0.588917 0.000000
vn 0.616308 -0.787505 0.000000
vn 0.600000 -0.800000 0.000000
vn 0.762757 0.646685 0.000000
vn -0.307003 0.951709 0.000000
vn 0.800000 0.600000 0.000000
vn 0.715376 -0.698740 0.000000
vn 0.781865 0.623448 0.000000
vn -0.454470 0.890762 0.000000
vn 0.640184 0.768221 0.000000
vn 0.819232 0.573462 0.000000
vn 0.766648 0.642068 0.000000
vn 0.777941 0.628337 0.000000
vn 0.901002 0.433816 0.000000
vn 0.926092 -0.377297 0.000000
vn 0.872943 0.487821 0.000000
vn 0.707107 0.707107 0.000000
vn 0.740987 0.671519 0.000000
vn 0.733430 0.679765 0.000000
vn 0.847998 0.529999 0.000000
vn 0.763386 0.645942 0.000000
vn 0.000000 1.000000 0.000000
vn -0.328521 0.944497 0.000000
vn 0.783965 0.620805 0.000000
vn -0.341743 0.939793 0.000000

# Face_Vertex_Texel
vt 0.004028 0.956787
vt 0.000366 0.943237
vt 0.000000 0.921997
vt 0.003296 0.904663
vt 0.003540 0.898926
vt 0.393555 0.898438
vt 0.784668 0.898438
vt 0.785889 0.962646
vt 0.700562 0.966187
vt 0.700562 0.982178
vt 0.700562 0.984863
vt 0.636108 0.982788
vt 0.630249 0.966187
vt 0.555298 0.968262
vt 0.551025 1.000000
vt 0.446411 1.000000
vt 0.440918 0.971191
vt 0.428711 0.968628
vt 0.415649 0.969360
vt 0.359863 0.968018
vt 0.342163 0.967773
vt 0.326416 0.971313
vt 0.318726 0.985229
vt 0.298218 0.988525
vt 0.291382 0.987671
vt 0.268433 0.986206
vt 0.179199 0.979370
vt 0.174194 0.979858
vt 0.146973 0.979004
vt 0.144043 0.975220
vt 0.139893 0.962646
vt 0.005859 0.962891
vt 0.786499 1.000000
vt 0.786499 0.937500
vt 0.798096 0.937500
vt 0.798096 1.000000
vt 0.798706 1.000000
vt 0.798706 0.937500
vt 0.815308 0.937500
vt 0.815308 1.000000
vt 0.815918 1.000000
vt 0.815918 0.937500
vt 0.829956 0.937500
vt 0.829956 1.000000
vt 0.830566 1.000000
vt 0.830566 0.937500
vt 0.836426 0.937500
vt 0.836426 1.000000
vt 0.837036 1.000000
vt 0.837036 0.985962
vt 0.899536 0.985962
vt 0.899536 1.000000
vt 0.900146 1.000000
vt 0.900146 0.985962
vt 0.962646 0.985962
vt 0.962646 1.000000
vt 0.000000 0.897827
vt 0.000000 0.835327
vt 0.046387 0.835327
vt 0.046387 0.897827
vt 0.046997 0.897827
vt 0.046997 0.835327
vt 0.108765 0.835327
vt 0.108765 0.897827
vt 0.109375 0.897827
vt 0.109375 0.835327
vt 0.122192 0.835327
vt 0.122192 0.897827
vt 0.122803 0.897827
vt 0.122803 0.835327
vt 0.126465 0.835327
vt 0.126465 0.897827
vt 0.127075 0.897827
vt 0.127075 0.835327
vt 0.174194 0.835327
vt 0.174194 0.897827
vt 0.174805 0.897827
vt 0.174805 0.835327
vt 0.188843 0.835327
vt 0.188843 0.897827
vt 0.189453 0.897827
vt 0.189453 0.835327
vt 0.243774 0.835327
vt 0.243774 0.897827
vt 0.244385 0.897827
vt 0.244385 0.835327
vt 0.268799 0.835327
vt 0.268799 0.897827
vt 0.269409 0.897827
vt 0.269409 0.846069
vt 0.331909 0.846069
vt 0.331909 0.897827
vt 0.332520 0.897827
vt 0.332520 0.835327
vt 0.354980 0.835327
vt 0.354980 0.897827
vt 0.355591 0.897827
vt 0.355591 0.835327
vt 0.366211 0.835327
vt 0.366211 0.897827
vt 0.366821 0.897827
vt 0.366821 0.835327
vt 0.377808 0.835327
vt 0.377808 0.897827
vt 0.378418 0.897827
vt 0.378418 0.835327
vt 0.419434 0.835327
vt 0.419434 0.897827
vt 0.420044 0.897827
vt 0.420044 0.835327
vt 0.434448 0.835327
vt 0.434448 0.897827
vt 0.435059 0.897827
vt 0.435059 0.835327
vt 0.448120 0.835327
vt 0.448120 0.897827
vt 0.448730 0.897827
vt 0.448730 0.835327
vt 0.461548 0.835327
vt 0.461548 0.897827
vt 0.462158 0.897827
vt 0.462158 0.835327
vt 0.478638 0.835327
vt 0.478638 0.897827
vt 0.479248 0.897827
vt 0.479248 0.835327
vt 0.485840 0.835327
vt 0.485840 0.897827
vt 0.486450 0.897827
vt 0.486450 0.835327
vt 0.504517 0.835327
vt 0.504517 0.897827
vt 0.505127 0.897827
vt 0.505127 0.837646
vt 0.567627 0.837646
vt 0.567627 0.897827
vt 0.568237 0.897827
vt 0.568237 0.835327
vt 0.573608 0.835327
vt 0.573608 0.897827
vt 0.574219 0.897827
vt 0.574219 0.835327
vt 0.595215 0.835327
vt 0.595215 0.897827
vt 0.595825 0.897827
vt 0.595825 0.835327
vt 0.601074 0.835327
vt 0.601074 0.897827
vt 0.601685 0.897827
vt 0.601685 0.835327
vt 0.612671 0.835327
vt 0.612671 0.897827
vt 0.613281 0.897827
vt 0.613281 0.857300
vt 0.675781 0.857300
vt 0.675781 0.897827
vt 0.676392 0.897827
vt 0.676392 0.835327
vt 0.682617 0.835327
vt 0.682617 0.897827

usemtl texture
f 1/1/1 2/2/1 3/3/1
f 1/1/1 3/3/1 4/4/1
f 1/1/1 4/4/1 5/5/1
f 1/1/1 5/5/1 6/6/1
f 1/1/1 6/6/1 7/7/1
f 1/1/1 7/7/1 8/8/1
f 1/1/1 8/8/1 9/9/1
f 10/10/1 11/11/1 12/12/1
f 10/10/1 12/12/1 13/13/1
f 14/14/1 15/15/1 16/16/1
f 14/14/1 16/16/1 17/17/1
f 14/14/1 17/17/1 18/18/1
f 18/18/1 19/19/1 20/20/1
f 18/18/1 20/20/1 21/21/1
f 22/22/1 23/23/1 24/24/1
f 22/22/1 24/24/1 25/25/1
f 22/22/1 25/25/1 26/26/1
f 22/22/1 26/26/1 27/27/1
f 27/27/1 28/28/1 29/29/1
f 27/27/1 29/29/1 30/30/1
f 27/27/1 30/30/1 31/31/1
f 31/31/1 32/32/1 1/1/1
f 31/31/1 1/1/1 9/9/1
f 9/9/1 10/10/1 13/13/1
f 13/13/1 14/14/1 18/18/1
f 13/13/1 18/18/1 21/21/1
f 21/21/1 22/22/1 27/27/1
f 21/21/1 27/27/1 31/31/1
f 31/31/1 9/9/1 13/13/1
f 31/31/1 13/13/1 21/21/1
f 2/36/2 1/33/2 33/34/2
f 2/36/2 33/34/2 34/35/2
f 3/40/3 2/37/3 34/38/3
f 3/40/3 34/38/3 35/39/3
f 4/44/4 3/41/4 35/42/4
f 4/44/4 35/42/4 36/43/4
f 5/48/5 4/45/5 36/46/5
f 5/48/5 36/46/5 37/47/5
f 6/52/6 5/49/6 37/50/6
f 6/52/6 37/50/6 38/51/6
f 7/56/7 6/53/7 38/54/7
f 7/56/7 38/54/7 39/55/7
f 8/60/8 7/57/8 39/58/8
f 8/60/8 39/58/8 40/59/8
f 9/64/9 8/61/9 40/62/9
f 9/64/9 40/62/9 41/63/9
f 10/68/10 9/65/10 41/66/10
f 10/68/10 41/66/10 42/67/10
f 11/72/11 10/69/11 42/70/11
f 11/72/11 42/70/11 43/71/11
f 12/76/12 11/73/12 43/74/12
f 12/76/12 43/74/12 44/75/12
f 13/80/13 12/77/13 44/78/13
f 13/80/13 44/78/13 45/79/13
f 14/84/14 13/81/14 45/82/14
f 14/84/14 45/82/14 46/83/14
f 15/88/15 14/85/15 46/86/15
f 15/88/15 46/86/15 47/87/15
f 16/92/16 15/89/16 47/90/16
f 16/92/16 47/90/16 48/91/16
f 17/96/17 16/93/17 48/94/17
f 17/96/17 48/94/17 49/95/17
f 18/100/18 17/97/18 49/98/18
f 18/100/18 49/98/18 50/99/18
f 19/104/19 18/101/19 50/102/19
f 19/104/19 50/102/19 51/103/19
f 20/108/20 19/105/20 51/106/20
f 20/108/20 51/106/20 52/107/20
f 21/112/21 20/109/21 52/110/21
f 21/112/21 52/110/21 53/111/21
f 22/116/22 21/113/22 53/114/22
f 22/116/22 53/114/22 54/115/22
f 23/120/23 22/117/23 54/118/23
f 23/120/23 54/118/23 55/119/23
f 24/124/24 23/121/24 55/122/24
f 24/124/24 55/122/24 56/123/24
f 25/128/25 24/125/25 56/126/25
f 25/128/25 56/126/25 57/127/25
f 26/132/26 25/129/26 57/130/26
f 26/132/26 57/130/26 58/131/26
f 27/136/27 26/133/27 58/134/27
f 27/136/27 58/134/27 59/135/27
f 28/140/28 27/137/28 59/138/28
f 28/140/28 59/138/28 60/139/28
f 29/144/29 28/141/29 60/142/29
f 29/144/29 60/142/29 61/143/29
f 30/148/30 29/145/30 61/146/30
f 30/148/30 61/146/30 62/147/30
f 31/152/31 30/149/31 62/150/31
f 31/152/31 62/150/31 63/151/31
f 32/156/32 31/153/32 63/154/32
f 32/156/32 63/154/32 64/155/32
f 1/160/33 32/157/33 64/158/33
f 1/160/33 64/158/33 33/159/33

# g
# Face_Normal
vn -0.000000 -0.000000 1.000000
vn -1.000000 -0.000000 -0.000000
vn -0.936329 -0.351123 -0.000000
vn -0.707107 -0.707107 -0.000000
vn -0.948683 -0.316228 -0.000000
vn 0.000000 -1.000000 0.000000
vn 0.675725 -0.737154 0.000000
vn 0.970143 -0.242536 0.000000
vn 0.242536 -0.970142 0.000000
vn 0.919145 0.393919 0.000000
vn 0.546268 0.837611 0.000000
vn -0.110432 0.993884 0.000000
vn -0.447214 0.894427 0.000000

# Face_Vertex_Texel
vt 0.683228 0.882690
vt 0.690430 0.879517
vt 0.706055 0.878296
vt 0.707642 0.878784
vt 0.709595 0.878662
vt 0.712402 0.885742
vt 0.708984 0.894897
vt 0.707031 0.896362
vt 0.707397 0.897827
vt 0.698120 0.897827
vt 0.684448 0.890381
vt 0.683228 0.885376
vt 0.713867 0.897827
vt 0.713867 0.835327
vt 0.731567 0.835327
vt 0.731567 0.897827
vt 0.732178 0.897827
vt 0.732178 0.835327
vt 0.762329 0.835327
vt 0.762329 0.897827
vt 0.762939 0.897827
vt 0.762939 0.835327
vt 0.770630 0.835327
vt 0.770630 0.897827
vt 0.771240 0.897827
vt 0.771240 0.835327
vt 0.779175 0.835327
vt 0.779175 0.897827
vt 0.779785 0.897827
vt 0.779785 0.835327
vt 0.797485 0.835327
vt 0.797485 0.897827
vt 0.798096 0.897827
vt 0.798096 0.835327
vt 0.818970 0.835327
vt 0.818970 0.897827
vt 0.819580 0.897827
vt 0.819580 0.835327
vt 0.828491 0.835327
vt 0.828491 0.897827
vt 0.829102 0.897827
vt 0.829102 0.835327
vt 0.838013 0.835327
vt 0.838013 0.897827
vt 0.838623 0.897827
vt 0.838623 0.835327
vt 0.858521 0.835327
vt 0.858521 0.897827
vt 0.859131 0.897827
vt 0.859131 0.835327
vt 0.890991 0.835327
vt 0.890991 0.897827
vt 0.891602 0.897827
vt 0.891602 0.835327
vt 0.905396 0.835327
vt 0.905396 0.897827
vt 0.906006 0.897827
vt 0.906006 0.835327
vt 0.915283 0.835327
vt 0.915283 0.897827

f 76/172/34 65/161/34 66/162/34
f 76/172/34 66/162/34 67/163/34
f 76/172/34 67/163/34 68/164/34
f 76/172/34 68/164/34 69/165/34
f 76/172/34 69/165/34 70/166/34
f 76/172/34 70/166/34 71/167/34
f 76/172/34 71/167/34 72/168/34
f 76/172/34 72/168/34 73/169/34
f 76/172/34 73/169/34 74/170/34
f 76/172/34 74/170/34 75/171/34
f 66/176/35 65/173/35 77/174/35
f 66/176/35 77/174/35 78/175/35
f 67/180/36 66/177/36 78/178/36
f 67/180/36 78/178/36 79/179/36
f 68/184/37 67/181/37 79/182/37
f 68/184/37 79/182/37 80/183/37
f 69/188/38 68/185/38 80/186/38
f 69/188/38 80/186/38 81/187/38
f 70/192/39 69/189/39 81/190/39
f 70/192/39 81/190/39 82/191/39
f 71/196/40 70/193/40 82/194/40
f 71/196/40 82/194/40 83/195/40
f 72/200/41 71/197/41 83/198/41
f 72/200/41 83/198/41 84/199/41
f 73/204/42 72/201/42 84/202/42
f 73/204/42 84/202/42 85/203/42
f 74/208/43 73/205/43 85/206/43
f 74/208/43 85/206/43 86/207/43
f 75/212/44 74/209/44 86/210/44
f 75/212/44 86/210/44 87/211/44
f 76/216/45 75/213/45 87/214/45
f 76/216/45 87/214/45 88/215/45
f 65/220/46 76/217/46 88/218/46
f 65/220/46 88/218/46 77/219/46
