# OBJ file generated
mtllib TextureModel_BLD_Body_1.mtl

v 317552.893759 4154830.450000 56.286275
v 317544.093759 4154823.750000 56.286275
v 317543.293759 4154822.250000 56.286275
v 317552.893759 4154808.950000 56.286275
v 317559.293760 4154801.650000 56.286275
v 317562.293760 4154796.050000 56.286275
v 317566.393760 4154791.950000 56.286275
v 317568.393760 4154788.450000 56.286275
v 317570.693760 4154786.450000 56.286275
v 317571.793760 4154785.850000 56.286275
v 317571.493760 4154783.450000 56.286275
v 317573.693760 4154780.750000 56.286275
v 317581.393761 4154773.450000 56.286275
v 317592.093761 4154780.750000 56.286275
v 317591.993761 4154781.250000 56.286275
v 317587.293761 4154786.250000 56.286275
v 317587.293761 4154787.250000 56.286275
v 317585.293761 4154790.250000 56.286275
v 317583.693761 4154789.450000 56.286275
v 317574.393760 4154804.750000 56.286275
v 317561.693760 4154819.350000 56.286275
v 317561.793760 4154821.450000 56.286275
v 317560.393760 4154823.350000 56.286275
v 317556.793759 4154826.050000 56.286275
v 317552.893759 4154830.450000 30.000000
v 317544.093759 4154823.750000 30.000000
v 317543.293759 4154822.250000 30.000000
v 317552.893759 4154808.950000 30.000000
v 317559.293760 4154801.650000 30.000000
v 317562.293760 4154796.050000 30.000000
v 317566.393760 4154791.950000 30.000000
v 317568.393760 4154788.450000 30.000000
v 317570.693760 4154786.450000 30.000000
v 317571.793760 4154785.850000 30.000000
v 317571.493760 4154783.450000 30.000000
v 317573.693760 4154780.750000 30.000000
v 317581.393761 4154773.450000 30.000000
v 317592.093761 4154780.750000 30.000000
v 317591.993761 4154781.250000 30.000000
v 317587.293761 4154786.250000 30.000000
v 317587.293761 4154787.250000 30.000000
v 317585.293761 4154790.250000 30.000000
v 317583.693761 4154789.450000 30.000000
v 317574.393760 4154804.750000 30.000000
v 317561.693760 4154819.350000 30.000000
v 317561.793760 4154821.450000 30.000000
v 317560.393760 4154823.350000 30.000000
v 317556.793759 4154826.050000 30.000000
v 317580.593761 4154786.950000 60.000000
v 317577.993761 4154784.250000 60.000000
v 317577.993761 4154783.750000 60.000000
v 317579.493761 4154781.950000 60.000000
v 317579.493761 4154781.750000 60.000000
v 317580.893761 4154782.950000 60.000000
v 317586.493761 4154786.950000 60.000000
v 317586.393761 4154787.150000 60.000000
v 317586.293761 4154787.750000 60.000000
v 317585.793761 4154788.450000 60.000000
v 317584.993761 4154788.850000 60.000000
v 317584.993761 4154789.050000 60.000000
v 317580.593761 4154786.950000 56.286275
v 317577.993761 4154784.250000 56.286275
v 317577.993761 4154783.750000 56.286275
v 317579.493761 4154781.950000 56.286275
v 317579.493761 4154781.750000 56.286275
v 317580.893761 4154782.950000 56.286275
v 317586.493761 4154786.950000 56.286275
v 317586.393761 4154787.150000 56.286275
v 317586.293761 4154787.750000 56.286275
v 317585.793761 4154788.450000 56.286275
v 317584.993761 4154788.850000 56.286275
v 317584.993761 4154789.050000 56.286275
v 317566.993760 4154803.050000 61.000000
v 317566.293760 4154802.350000 61.000000
v 317565.293760 4154801.350000 61.000000
v 317565.393760 4154800.750000 61.000000
v 317566.193760 4154798.950000 61.000000
v 317566.293760 4154798.850000 61.000000
v 317566.793760 4154798.750000 61.000000
v 317566.693760 4154798.450000 61.000000
v 317568.393760 4154799.150000 61.000000
v 317573.793760 4154804.350000 61.000000
v 317574.393760 4154804.650000 61.000000
v 317574.293760 4154804.750000 61.000000
v 317573.493760 4154805.850000 61.000000
v 317572.293760 4154806.250000 61.000000
v 317572.193760 4154806.250000 61.000000
v 317571.993760 4154806.450000 61.000000
v 317566.993760 4154803.050000 56.286275
v 317566.293760 4154802.350000 56.286275
v 317565.293760 4154801.350000 56.286275
v 317565.393760 4154800.750000 56.286275
v 317566.193760 4154798.950000 56.286275
v 317566.293760 4154798.850000 56.286275
v 317566.793760 4154798.750000 56.286275
v 317566.693760 4154798.450000 56.286275
v 317568.393760 4154799.150000 56.286275
v 317573.793760 4154804.350000 56.286275
v 317574.393760 4154804.650000 56.286275
v 317574.293760 4154804.750000 56.286275
v 317573.493760 4154805.850000 56.286275
v 317572.293760 4154806.250000 56.286275
v 317572.193760 4154806.250000 56.286275
v 317571.993760 4154806.450000 56.286275
v 317559.493760 4154823.750000 62.000000
v 317558.493760 4154822.150000 62.000000
v 317552.893759 4154818.850000 62.000000
v 317552.493759 4154817.850000 62.000000
v 317552.493759 4154817.550000 62.000000
v 317552.293759 4154817.150000 62.000000
v 317552.293759 4154816.950000 62.000000
v 317553.893759 4154816.050000 62.000000
v 317553.793759 4154815.950000 62.000000
v 317554.093759 4154815.550000 62.000000
v 317556.793759 4154816.950000 62.000000
v 317561.693760 4154821.250000 62.000000
v 317561.693760 4154821.550000 62.000000
v 317561.593760 4154821.450000 62.000000
v 317560.293760 4154823.450000 62.000000
v 317560.293760 4154823.550000 62.000000
v 317559.493760 4154823.750000 56.286275
v 317558.493760 4154822.150000 56.286275
v 317552.893759 4154818.850000 56.286275
v 317552.493759 4154817.850000 56.286275
v 317552.493759 4154817.550000 56.286275
v 317552.293759 4154817.150000 56.286275
v 317552.293759 4154816.950000 56.286275
v 317553.893759 4154816.050000 56.286275
v 317553.793759 4154815.950000 56.286275
v 317554.093759 4154815.550000 56.286275
v 317556.793759 4154816.950000 56.286275
v 317561.693760 4154821.250000 56.286275
v 317561.693760 4154821.550000 56.286275
v 317561.593760 4154821.450000 56.286275
v 317560.293760 4154823.450000 56.286275
v 317560.293760 4154823.550000 56.286275

# g
# Face_Normal
vn 0.000000 0.000000 1.000000
vn -0.605771 0.795639 0.000000
vn -0.882353 0.470588 0.000000
vn -0.810840 -0.585268 -0.000000
vn -0.751938 -0.659234 -0.000000
vn -0.881480 -0.472221 -0.000000
vn -0.707107 -0.707107 -0.000000
vn -0.868243 -0.496139 -0.000000
vn -0.656179 -0.754606 -0.000000
vn -0.478852 -0.877896 -0.000000
vn -0.992278 0.124035 0.000000
vn -0.775235 -0.631673 -0.000000
vn -0.688006 -0.725705 -0.000000
vn 0.563576 -0.826064 0.000000
vn 0.980581 0.196116 0.000000
vn 0.728628 0.684910 0.000000
vn 1.000000 -0.000000 0.000000
vn 0.832050 0.554700 0.000000
vn -0.447214 0.894427 0.000000
vn 0.854522 0.519415 0.000000
vn 0.754494 0.656307 0.000000
vn 0.998868 -0.047565 0.000000
vn 0.805056 0.593199 0.000000
vn 0.600000 0.800000 0.000000
vn 0.748347 0.663308 0.000000

# Face_Vertex_Texel
vt 0.000244 0.984619
vt 0.001099 0.916870
vt 0.005493 0.907471
vt 0.104980 0.907349
vt 0.163696 0.912231
vt 0.201904 0.907349
vt 0.236694 0.912354
vt 0.260864 0.909668
vt 0.278931 0.913696
vt 0.285889 0.916992
vt 0.296387 0.907349
vt 0.317505 0.907959
vt 0.380859 0.919800
vt 0.384033 0.999146
vt 0.381226 1.000000
vt 0.339844 0.995239
vt 0.334961 0.998901
vt 0.313110 0.999878
vt 0.311279 0.989014
vt 0.203247 0.998291
vt 0.086182 0.988159
vt 0.076416 0.996338
vt 0.062012 0.996216
vt 0.035889 0.988159
vt 0.385376 1.000000
vt 0.385376 0.937500
vt 0.412231 0.937500
vt 0.412231 1.000000
vt 0.412842 1.000000
vt 0.412842 0.937500
vt 0.417969 0.937500
vt 0.417969 1.000000
vt 0.418579 1.000000
vt 0.418579 0.937500
vt 0.458008 0.937500
vt 0.458008 1.000000
vt 0.458618 1.000000
vt 0.458618 0.937500
vt 0.482422 0.937500
vt 0.482422 1.000000
vt 0.483032 1.000000
vt 0.483032 0.937500
vt 0.498901 0.937500
vt 0.498901 1.000000
vt 0.499512 1.000000
vt 0.499512 0.937500
vt 0.514160 0.937500
vt 0.514160 1.000000
vt 0.514771 1.000000
vt 0.514771 0.937500
vt 0.525269 0.937500
vt 0.525269 1.000000
vt 0.525879 1.000000
vt 0.525879 0.937500
vt 0.534058 0.937500
vt 0.534058 1.000000
vt 0.534668 1.000000
vt 0.534668 0.937500
vt 0.538696 0.937500
vt 0.538696 1.000000
vt 0.539307 1.000000
vt 0.539307 0.937500
vt 0.546021 0.937500
vt 0.546021 1.000000
vt 0.546631 1.000000
vt 0.546631 0.937500
vt 0.555908 0.937500
vt 0.555908 1.000000
vt 0.556519 1.000000
vt 0.556519 0.937500
vt 0.582397 0.937500
vt 0.582397 1.000000
vt 0.583008 1.000000
vt 0.583008 0.937500
vt 0.614380 0.937500
vt 0.614380 1.000000
vt 0.614990 1.000000
vt 0.614990 0.937500
vt 0.617310 0.937500
vt 0.617310 1.000000
vt 0.617920 1.000000
vt 0.617920 0.937500
vt 0.635010 0.937500
vt 0.635010 1.000000
vt 0.635620 1.000000
vt 0.635620 0.937500
vt 0.639038 0.937500
vt 0.639038 1.000000
vt 0.639648 1.000000
vt 0.639648 0.937500
vt 0.649170 0.937500
vt 0.649170 1.000000
vt 0.649780 1.000000
vt 0.649780 0.937500
vt 0.655029 0.937500
vt 0.655029 1.000000
vt 0.655640 1.000000
vt 0.655640 0.937500
vt 0.698486 0.937500
vt 0.698486 1.000000
vt 0.699097 1.000000
vt 0.699097 0.937500
vt 0.745361 0.937500
vt 0.745361 1.000000
vt 0.745972 1.000000
vt 0.745972 0.937500
vt 0.751953 0.937500
vt 0.751953 1.000000
vt 0.752563 1.000000
vt 0.752563 0.937500
vt 0.759155 0.937500
vt 0.759155 1.000000
vt 0.759766 1.000000
vt 0.759766 0.937500
vt 0.771362 0.937500
vt 0.771362 1.000000
vt 0.771973 1.000000
vt 0.771973 0.937500
vt 0.786743 0.937500
vt 0.786743 1.000000

usemtl texture
f 24/24/1 1/1/1 2/2/1
f 24/24/1 2/2/1 3/3/1
f 24/24/1 3/3/1 4/4/1
f 24/24/1 4/4/1 5/5/1
f 24/24/1 5/5/1 6/6/1
f 24/24/1 6/6/1 7/7/1
f 24/24/1 7/7/1 8/8/1
f 24/24/1 8/8/1 9/9/1
f 24/24/1 9/9/1 10/10/1
f 10/10/1 11/11/1 12/12/1
f 10/10/1 12/12/1 13/13/1
f 10/10/1 13/13/1 14/14/1
f 10/10/1 14/14/1 15/15/1
f 10/10/1 15/15/1 16/16/1
f 10/10/1 16/16/1 17/17/1
f 17/17/1 18/18/1 19/19/1
f 19/19/1 20/20/1 21/21/1
f 21/21/1 22/22/1 23/23/1
f 21/21/1 23/23/1 24/24/1
f 21/21/1 24/24/1 10/10/1
f 10/10/1 17/17/1 19/19/1
f 10/10/1 19/19/1 21/21/1
f 2/28/2 1/25/2 25/26/2
f 2/28/2 25/26/2 26/27/2
f 3/32/3 2/29/3 26/30/3
f 3/32/3 26/30/3 27/31/3
f 4/36/4 3/33/4 27/34/4
f 4/36/4 27/34/4 28/35/4
f 5/40/5 4/37/5 28/38/5
f 5/40/5 28/38/5 29/39/5
f 6/44/6 5/41/6 29/42/6
f 6/44/6 29/42/6 30/43/6
f 7/48/7 6/45/7 30/46/7
f 7/48/7 30/46/7 31/47/7
f 8/52/8 7/49/8 31/50/8
f 8/52/8 31/50/8 32/51/8
f 9/56/9 8/53/9 32/54/9
f 9/56/9 32/54/9 33/55/9
f 10/60/10 9/57/10 33/58/10
f 10/60/10 33/58/10 34/59/10
f 11/64/11 10/61/11 34/62/11
f 11/64/11 34/62/11 35/63/11
f 12/68/12 11/65/12 35/66/12
f 12/68/12 35/66/12 36/67/12
f 13/72/13 12/69/13 36/70/13
f 13/72/13 36/70/13 37/71/13
f 14/76/14 13/73/14 37/74/14
f 14/76/14 37/74/14 38/75/14
f 15/80/15 14/77/15 38/78/15
f 15/80/15 38/78/15 39/79/15
f 16/84/16 15/81/16 39/82/16
f 16/84/16 39/82/16 40/83/16
f 17/88/17 16/85/17 40/86/17
f 17/88/17 40/86/17 41/87/17
f 18/92/18 17/89/18 41/90/18
f 18/92/18 41/90/18 42/91/18
f 19/96/19 18/93/19 42/94/19
f 19/96/19 42/94/19 43/95/19
f 20/100/20 19/97/20 43/98/20
f 20/100/20 43/98/20 44/99/20
f 21/104/21 20/101/21 44/102/21
f 21/104/21 44/102/21 45/103/21
f 22/108/22 21/105/22 45/106/22
f 22/108/22 45/106/22 46/107/22
f 23/112/23 22/109/23 46/110/23
f 23/112/23 46/110/23 47/111/23
f 24/116/24 23/113/24 47/114/24
f 24/116/24 47/114/24 48/115/24
f 1/120/25 24/117/25 48/118/25
f 1/120/25 48/118/25 25/119/25

# g
# Face_Normal
vn -0.000000 0.000000 1.000000
vn -0.720320 0.693642 0.000000
vn -1.000000 -0.000000 -0.000000
vn -0.768221 -0.640184 -0.000000
vn -1.000000 -0.000000 -0.000000
vn 0.650791 -0.759257 0.000000
vn 0.581238 -0.813733 0.000000
vn 0.894427 0.447214 0.000000
vn 0.986394 0.164399 0.000000
vn 0.813733 0.581238 0.000000
vn 0.447214 0.894427 0.000000
vn 1.000000 -0.000000 0.000000
vn -0.430730 0.902481 0.000000

# Face_Vertex_Texel
vt 0.787354 0.966919
vt 0.791504 0.944092
vt 0.794067 0.943237
vt 0.807739 0.943237
vt 0.807739 0.943237
vt 0.807739 0.953369
vt 0.807739 0.996948
vt 0.806396 0.997192
vt 0.802979 0.999268
vt 0.797607 0.999634
vt 0.792725 0.997192
vt 0.791626 0.998047
vt 0.808350 1.000000
vt 0.808350 0.938110
vt 0.870850 0.938110
vt 0.870850 1.000000
vt 0.871460 1.000000
vt 0.871460 0.937500
vt 0.886230 0.937500
vt 0.886230 1.000000
vt 0.886841 1.000000
vt 0.886841 0.937500
vt 0.928955 0.937500
vt 0.928955 1.000000
vt 0.929565 1.000000
vt 0.929565 0.937500
vt 0.939941 0.937500
vt 0.939941 1.000000
vt 0.940552 1.000000
vt 0.940552 0.937500
vt 0.975220 0.937500
vt 0.975220 1.000000
vt 0.000000 0.906738
vt 0.000000 0.871094
vt 0.062500 0.871094
vt 0.062500 0.906738
vt 0.063110 0.906738
vt 0.063110 0.844238
vt 0.073730 0.844238
vt 0.073730 0.906738
vt 0.074341 0.906738
vt 0.074341 0.844238
vt 0.090698 0.844238
vt 0.090698 0.906738
vt 0.091309 0.906738
vt 0.091309 0.844238
vt 0.111450 0.844238
vt 0.111450 0.906738
vt 0.112061 0.906738
vt 0.112061 0.844238
vt 0.132690 0.844238
vt 0.132690 0.906738
vt 0.133301 0.906738
vt 0.133301 0.844238
vt 0.143677 0.844238
vt 0.143677 0.906738
vt 0.144287 0.906738
vt 0.144287 0.857788
vt 0.206787 0.857788
vt 0.206787 0.906738

f 60/132/26 49/121/26 50/122/26
f 60/132/26 50/122/26 51/123/26
f 60/132/26 51/123/26 52/124/26
f 60/132/26 52/124/26 53/125/26
f 60/132/26 53/125/26 54/126/26
f 54/126/26 55/127/26 56/128/26
f 54/126/26 56/128/26 57/129/26
f 54/126/26 57/129/26 58/130/26
f 54/126/26 58/130/26 59/131/26
f 54/126/26 59/131/26 60/132/26
f 50/136/27 49/133/27 61/134/27
f 50/136/27 61/134/27 62/135/27
f 51/140/28 50/137/28 62/138/28
f 51/140/28 62/138/28 63/139/28
f 52/144/29 51/141/29 63/142/29
f 52/144/29 63/142/29 64/143/29
f 53/148/30 52/145/30 64/146/30
f 53/148/30 64/146/30 65/147/30
f 54/152/31 53/149/31 65/150/31
f 54/152/31 65/150/31 66/151/31
f 55/156/32 54/153/32 66/154/32
f 55/156/32 66/154/32 67/155/32
f 56/160/33 55/157/33 67/158/33
f 56/160/33 67/158/33 68/159/33
f 57/164/34 56/161/34 68/162/34
f 57/164/34 68/162/34 69/163/34
f 58/168/35 57/165/35 69/166/35
f 58/168/35 69/166/35 70/167/35
f 59/172/36 58/169/36 70/170/36
f 59/172/36 70/170/36 71/171/36
f 60/176/37 59/173/37 71/174/37
f 60/176/37 71/174/37 72/175/37
f 49/180/38 60/177/38 72/178/38
f 49/180/38 72/178/38 61/179/38

# g
# Face_Normal
vn -0.000000 0.000000 1.000000
vn -0.707107 0.707107 0.000000
vn -0.707107 0.707107 0.000000
vn -0.986394 -0.164399 -0.000000
vn -0.913812 -0.406138 -0.000000
vn -0.707107 -0.707107 -0.000000
vn -0.196116 -0.980581 -0.000000
vn -0.948683 0.316228 0.000000
vn 0.380750 -0.924678 0.000000
vn 0.693642 -0.720320 0.000000
vn 0.447214 -0.894427 0.000000
vn 0.707107 0.707107 0.000000
vn 0.808736 0.588172 0.000000
vn 0.316228 0.948683 0.000000
vn 0.000000 1.000000 0.000000
vn 0.707107 0.707107 0.000000
vn -0.562310 0.826927 0.000000

# Face_Vertex_Texel
vt 0.208130 0.861084
vt 0.208252 0.854248
vt 0.208374 0.844604
vt 0.211792 0.842163
vt 0.223999 0.837769
vt 0.224976 0.837769
vt 0.227783 0.839233
vt 0.228882 0.837769
vt 0.233521 0.848877
vt 0.233643 0.900269
vt 0.233643 0.904785
vt 0.233643 0.904785
vt 0.225098 0.906250
vt 0.217407 0.902344
vt 0.216919 0.901855
vt 0.215088 0.901978
vt 0.234253 0.906738
vt 0.234253 0.844238
vt 0.252075 0.844238
vt 0.252075 0.906738
vt 0.252686 0.906738
vt 0.252686 0.844238
vt 0.275513 0.844238
vt 0.275513 0.906738
vt 0.276123 0.906738
vt 0.276123 0.844238
vt 0.289307 0.844238
vt 0.289307 0.906738
vt 0.289917 0.906738
vt 0.289917 0.844238
vt 0.319458 0.844238
vt 0.319458 0.906738
vt 0.320068 0.906738
vt 0.320068 0.844238
vt 0.327637 0.844238
vt 0.327637 0.906738
vt 0.328247 0.906738
vt 0.328247 0.844238
vt 0.340332 0.844238
vt 0.340332 0.906738
vt 0.340942 0.906738
vt 0.340942 0.844238
vt 0.350708 0.844238
vt 0.350708 0.906738
vt 0.351318 0.906738
vt 0.351318 0.844238
vt 0.379272 0.844238
vt 0.379272 0.906738
vt 0.379883 0.906738
vt 0.379883 0.866089
vt 0.442383 0.866089
vt 0.442383 0.906738
vt 0.442993 0.906738
vt 0.442993 0.844238
vt 0.456909 0.844238
vt 0.456909 0.906738
vt 0.457520 0.906738
vt 0.457520 0.844238
vt 0.465088 0.844238
vt 0.465088 0.906738
vt 0.465698 0.906738
vt 0.465698 0.844238
vt 0.487915 0.844238
vt 0.487915 0.906738
vt 0.488525 0.906738
vt 0.488525 0.844238
vt 0.509644 0.844238
vt 0.509644 0.906738
vt 0.510254 0.906738
vt 0.510254 0.844238
vt 0.517334 0.844238
vt 0.517334 0.906738
vt 0.517944 0.906738
vt 0.517944 0.844238
vt 0.527222 0.844238
vt 0.527222 0.906738
vt 0.527832 0.906738
vt 0.527832 0.857056
vt 0.590332 0.857056
vt 0.590332 0.906738

f 88/196/39 73/181/39 74/182/39
f 88/196/39 74/182/39 75/183/39
f 88/196/39 75/183/39 76/184/39
f 88/196/39 76/184/39 77/185/39
f 88/196/39 77/185/39 78/186/39
f 88/196/39 78/186/39 79/187/39
f 88/196/39 79/187/39 80/188/39
f 88/196/39 80/188/39 81/189/39
f 82/190/39 83/191/39 84/192/39
f 82/190/39 84/192/39 85/193/39
f 82/190/39 85/193/39 86/194/39
f 82/190/39 86/194/39 87/195/39
f 87/195/39 88/196/39 81/189/39
f 87/195/39 81/189/39 82/190/39
f 74/200/40 73/197/40 89/198/40
f 74/200/40 89/198/40 90/199/40
f 75/204/41 74/201/41 90/202/41
f 75/204/41 90/202/41 91/203/41
f 76/208/42 75/205/42 91/206/42
f 76/208/42 91/206/42 92/207/42
f 77/212/43 76/209/43 92/210/43
f 77/212/43 92/210/43 93/211/43
f 78/216/44 77/213/44 93/214/44
f 78/216/44 93/214/44 94/215/44
f 79/220/45 78/217/45 94/218/45
f 79/220/45 94/218/45 95/219/45
f 80/224/46 79/221/46 95/222/46
f 80/224/46 95/222/46 96/223/46
f 81/228/47 80/225/47 96/226/47
f 81/228/47 96/226/47 97/227/47
f 82/232/48 81/229/48 97/230/48
f 82/232/48 97/230/48 98/231/48
f 83/236/49 82/233/49 98/234/49
f 83/236/49 98/234/49 99/235/49
f 84/240/50 83/237/50 99/238/50
f 84/240/50 99/238/50 100/239/50
f 85/244/51 84/241/51 100/242/51
f 85/244/51 100/242/51 101/243/51
f 86/248/52 85/245/52 101/246/52
f 86/248/52 101/246/52 102/247/52
f 87/252/53 86/249/53 102/250/53
f 87/252/53 102/250/53 103/251/53
f 88/256/54 87/253/54 103/254/54
f 88/256/54 103/254/54 104/255/54
f 73/260/55 88/257/55 104/258/55
f 73/260/55 104/258/55 89/259/55

# g
# Face_Normal
vn 0.000000 0.000000 1.000000
vn -0.847998 0.529999 0.000000
vn -0.507692 0.861538 0.000000
vn -0.928477 0.371391 0.000000
vn -1.000000 -0.000000 -0.000000
vn -0.894427 0.447214 0.000000
vn -1.000000 -0.000000 -0.000000
vn -0.490261 -0.871576 -0.000000
vn -0.707107 0.707107 0.000000
vn -0.800000 -0.600000 -0.000000
vn 0.460317 -0.887755 0.000000
vn 0.659590 -0.751626 0.000000
vn 1.000000 -0.000000 0.000000
vn -0.707107 0.707107 0.000000
vn 0.838444 0.544988 0.000000
vn 1.000000 -0.000000 0.000000
vn 0.242536 0.970142 0.000000

# Face_Vertex_Texel
vt 0.591431 0.901611
vt 0.596069 0.890015
vt 0.591431 0.846069
vt 0.595215 0.839844
vt 0.596802 0.838745
vt 0.598145 0.836060
vt 0.599365 0.835693
vt 0.610596 0.840576
vt 0.610840 0.839600
vt 0.614014 0.839722
vt 0.617432 0.860229
vt 0.613647 0.904053
vt 0.612061 0.905273
vt 0.612305 0.904419
vt 0.596191 0.905029
vt 0.595703 0.905273
vt 0.618286 0.906738
vt 0.618286 0.844238
vt 0.642212 0.844238
vt 0.642212 0.906738
vt 0.642822 0.906738
vt 0.642822 0.851318
vt 0.705322 0.851318
vt 0.705322 0.906738
vt 0.705933 0.906738
vt 0.705933 0.844238
vt 0.721680 0.844238
vt 0.721680 0.906738
vt 0.722290 0.906738
vt 0.722290 0.844238
vt 0.730225 0.844238
vt 0.730225 0.906738
vt 0.730835 0.906738
vt 0.730835 0.844238
vt 0.740356 0.844238
vt 0.740356 0.906738
vt 0.740967 0.906738
vt 0.740967 0.844238
vt 0.747925 0.844238
vt 0.747925 0.906738
vt 0.748535 0.906738
vt 0.748535 0.844238
vt 0.771973 0.844238
vt 0.771973 0.906738
vt 0.772583 0.906738
vt 0.772583 0.844238
vt 0.778931 0.844238
vt 0.778931 0.906738
vt 0.779541 0.906738
vt 0.779541 0.844238
vt 0.789551 0.844238
vt 0.789551 0.906738
vt 0.790161 0.906738
vt 0.790161 0.844238
vt 0.825684 0.844238
vt 0.825684 0.906738
vt 0.826294 0.906738
vt 0.826294 0.851440
vt 0.888794 0.851440
vt 0.888794 0.906738
vt 0.889404 0.906738
vt 0.889404 0.844238
vt 0.897339 0.844238
vt 0.897339 0.906738
vt 0.897949 0.906738
vt 0.897949 0.844238
vt 0.904297 0.844238
vt 0.904297 0.906738
vt 0.904907 0.906738
vt 0.904907 0.844238
vt 0.933838 0.844238
vt 0.933838 0.906738
vt 0.934448 0.906738
vt 0.934448 0.844238
vt 0.940430 0.844238
vt 0.940430 0.906738
vt 0.941040 0.906738
vt 0.941040 0.844238
vt 0.954346 0.844238
vt 0.954346 0.906738

f 120/276/56 105/261/56 106/262/56
f 106/262/56 107/263/56 108/264/56
f 106/262/56 108/264/56 109/265/56
f 106/262/56 109/265/56 110/266/56
f 106/262/56 110/266/56 111/267/56
f 106/262/56 111/267/56 112/268/56
f 112/268/56 113/269/56 114/270/56
f 112/268/56 114/270/56 115/271/56
f 112/268/56 115/271/56 116/272/56
f 112/268/56 116/272/56 117/273/56
f 112/268/56 117/273/56 118/274/56
f 112/268/56 118/274/56 119/275/56
f 120/276/56 106/262/56 112/268/56
f 120/276/56 112/268/56 119/275/56
f 106/280/57 105/277/57 121/278/57
f 106/280/57 121/278/57 122/279/57
f 107/284/58 106/281/58 122/282/58
f 107/284/58 122/282/58 123/283/58
f 108/288/59 107/285/59 123/286/59
f 108/288/59 123/286/59 124/287/59
f 109/292/60 108/289/60 124/290/60
f 109/292/60 124/290/60 125/291/60
f 110/296/61 109/293/61 125/294/61
f 110/296/61 125/294/61 126/295/61
f 111/300/62 110/297/62 126/298/62
f 111/300/62 126/298/62 127/299/62
f 112/304/63 111/301/63 127/302/63
f 112/304/63 127/302/63 128/303/63
f 113/308/64 112/305/64 128/306/64
f 113/308/64 128/306/64 129/307/64
f 114/312/65 113/309/65 129/310/65
f 114/312/65 129/310/65 130/311/65
f 115/316/66 114/313/66 130/314/66
f 115/316/66 130/314/66 131/315/66
f 116/320/67 115/317/67 131/318/67
f 116/320/67 131/318/67 132/319/67
f 117/324/68 116/321/68 132/322/68
f 117/324/68 132/322/68 133/323/68
f 118/328/69 117/325/69 133/326/69
f 118/328/69 133/326/69 134/327/69
f 119/332/70 118/329/70 134/330/70
f 119/332/70 134/330/70 135/331/70
f 120/336/71 119/333/71 135/334/71
f 120/336/71 135/334/71 136/335/71
f 105/340/72 120/337/72 136/338/72
f 105/340/72 136/338/72 121/339/72
