# OBJ file generated
mtllib TextureModel_BLD_Body_10.mtl

v 317453.193754 4155005.950000 68.803922
v 317443.993753 4154998.750000 68.803922
v 317444.193753 4154998.150000 68.803922
v 317472.293755 4154960.550000 68.803922
v 317500.493756 4154922.950000 68.803922
v 317510.893757 4154932.250000 68.803922
v 317511.093757 4154932.950000 68.803922
v 317504.593757 4154940.950000 68.803922
v 317501.393756 4154944.850000 68.803922
v 317481.693755 4154971.350000 68.803922
v 317461.993754 4154997.750000 68.803922
v 317453.193754 4155005.950000 30.000000
v 317443.993753 4154998.750000 30.000000
v 317444.193753 4154998.150000 30.000000
v 317472.293755 4154960.550000 30.000000
v 317500.493756 4154922.950000 30.000000
v 317510.893757 4154932.250000 30.000000
v 317511.093757 4154932.950000 30.000000
v 317504.593757 4154940.950000 30.000000
v 317501.393756 4154944.850000 30.000000
v 317481.693755 4154971.350000 30.000000
v 317461.993754 4154997.750000 30.000000
v 317496.093756 4154943.450000 73.000000
v 317495.993756 4154943.550000 73.000000
v 317493.293756 4154940.950000 73.000000
v 317493.393756 4154940.450000 73.000000
v 317493.793756 4154938.450000 73.000000
v 317493.493756 4154938.350000 73.000000
v 317493.693756 4154936.750000 73.000000
v 317495.193756 4154937.250000 73.000000
v 317501.193756 4154942.950000 73.000000
v 317501.193756 4154943.150000 73.000000
v 317500.793756 4154943.550000 73.000000
v 317500.693756 4154944.450000 73.000000
v 317499.993756 4154944.850000 73.000000
v 317499.993756 4154945.250000 73.000000
v 317496.093756 4154943.450000 68.803922
v 317495.993756 4154943.550000 68.803922
v 317493.293756 4154940.950000 68.803922
v 317493.393756 4154940.450000 68.803922
v 317493.793756 4154938.450000 68.803922
v 317493.493756 4154938.350000 68.803922
v 317493.693756 4154936.750000 68.803922
v 317495.193756 4154937.250000 68.803922
v 317501.193756 4154942.950000 68.803922
v 317501.193756 4154943.150000 68.803922
v 317500.793756 4154943.550000 68.803922
v 317500.693756 4154944.450000 68.803922
v 317499.993756 4154944.850000 68.803922
v 317499.993756 4154945.250000 68.803922
v 317480.593755 4154968.950000 73.000000
v 317480.593755 4154968.850000 73.000000
v 317479.093755 4154968.850000 73.000000
v 317477.793755 4154967.850000 73.000000
v 317476.193755 4154967.550000 73.000000
v 317474.593755 4154965.950000 73.000000
v 317473.993755 4154965.250000 73.000000
v 317473.993755 4154965.150000 73.000000
v 317473.793755 4154964.950000 73.000000
v 317475.193755 4154963.150000 73.000000
v 317475.593755 4154962.650000 73.000000
v 317476.093755 4154962.650000 73.000000
v 317482.293755 4154964.450000 73.000000
v 317482.593755 4154965.050000 73.000000
v 317481.893755 4154965.850000 73.000000
v 317481.693755 4154965.750000 73.000000
v 317481.593755 4154966.550000 73.000000
v 317481.493755 4154968.450000 73.000000
v 317480.593755 4154968.950000 68.803922
v 317480.593755 4154968.850000 68.803922
v 317479.093755 4154968.850000 68.803922
v 317477.793755 4154967.850000 68.803922
v 317476.193755 4154967.550000 68.803922
v 317474.593755 4154965.950000 68.803922
v 317473.993755 4154965.250000 68.803922
v 317473.993755 4154965.150000 68.803922
v 317473.793755 4154964.950000 68.803922
v 317475.193755 4154963.150000 68.803922
v 317475.593755 4154962.650000 68.803922
v 317476.093755 4154962.650000 68.803922
v 317482.293755 4154964.450000 68.803922
v 317482.593755 4154965.050000 68.803922
v 317481.893755 4154965.850000 68.803922
v 317481.693755 4154965.750000 68.803922
v 317481.593755 4154966.550000 68.803922
v 317481.493755 4154968.450000 68.803922
v 317462.293754 4154995.750000 74.000000
v 317462.293754 4154994.650000 74.000000
v 317458.193754 4154993.550000 74.000000
v 317455.293754 4154991.750000 74.000000
v 317455.293754 4154991.550000 74.000000
v 317454.993754 4154990.450000 74.000000
v 317454.793754 4154990.450000 74.000000
v 317454.893754 4154990.350000 74.000000
v 317455.093754 4154989.550000 74.000000
v 317456.793754 4154988.450000 74.000000
v 317456.593754 4154987.750000 74.000000
v 317456.793754 4154987.150000 74.000000
v 317457.293754 4154988.550000 74.000000
v 317460.493754 4154990.050000 74.000000
v 317462.193754 4154992.350000 74.000000
v 317462.093754 4154992.450000 74.000000
v 317462.193754 4154993.250000 74.000000
v 317463.093754 4154994.750000 74.000000
v 317462.893754 4154995.050000 74.000000
v 317462.493754 4154995.750000 74.000000
v 317462.293754 4154995.750000 68.803922
v 317462.293754 4154994.650000 68.803922
v 317458.193754 4154993.550000 68.803922
v 317455.293754 4154991.750000 68.803922
v 317455.293754 4154991.550000 68.803922
v 317454.993754 4154990.450000 68.803922
v 317454.793754 4154990.450000 68.803922
v 317454.893754 4154990.350000 68.803922
v 317455.093754 4154989.550000 68.803922
v 317456.793754 4154988.450000 68.803922
v 317456.593754 4154987.750000 68.803922
v 317456.793754 4154987.150000 68.803922
v 317457.293754 4154988.550000 68.803922
v 317460.493754 4154990.050000 68.803922
v 317462.193754 4154992.350000 68.803922
v 317462.093754 4154992.450000 68.803922
v 317462.193754 4154993.250000 68.803922
v 317463.093754 4154994.750000 68.803922
v 317462.893754 4154995.050000 68.803922
v 317462.493754 4154995.750000 68.803922

# g
# Face_Normal
vn 0.000000 0.000000 1.000000
vn -0.616308 0.787505 0.000000
vn -0.948683 -0.316228 -0.000000
vn -0.801021 -0.598636 -0.000000
vn -0.800000 -0.600000 -0.000000
vn 0.666585 -0.745429 0.000000
vn 0.961524 -0.274721 0.000000
vn 0.776114 0.630593 0.000000
vn 0.773073 0.634317 0.000000
vn 0.802537 0.596603 0.000000
vn 0.801455 0.598055 0.000000
vn 0.681726 0.731608 0.000000

# Face_Vertex_Texel
vt 0.001953 0.982178
vt 0.003906 0.903931
vt 0.007935 0.903931
vt 0.321533 0.903931
vt 0.636963 0.903931
vt 0.627930 0.996338
vt 0.624878 1.000000
vt 0.555542 0.997437
vt 0.521729 0.995850
vt 0.300293 0.996460
vt 0.080566 0.996582
vt 0.637573 1.000000
vt 0.637573 0.937500
vt 0.656860 0.937500
vt 0.656860 1.000000
vt 0.657471 1.000000
vt 0.657471 0.937500
vt 0.659180 0.937500
vt 0.659180 1.000000
vt 0.659790 1.000000
vt 0.659790 0.948242
vt 0.722290 0.948242
vt 0.722290 1.000000
vt 0.722900 1.000000
vt 0.722900 0.948364
vt 0.785400 0.948364
vt 0.785400 1.000000
vt 0.786011 1.000000
vt 0.786011 0.937500
vt 0.808960 0.937500
vt 0.808960 1.000000
vt 0.809570 1.000000
vt 0.809570 0.937500
vt 0.811401 0.937500
vt 0.811401 1.000000
vt 0.812012 1.000000
vt 0.812012 0.937500
vt 0.829102 0.937500
vt 0.829102 1.000000
vt 0.829712 1.000000
vt 0.829712 0.937500
vt 0.838501 0.937500
vt 0.838501 1.000000
vt 0.839111 1.000000
vt 0.839111 0.937500
vt 0.892334 0.937500
vt 0.892334 1.000000
vt 0.892944 1.000000
vt 0.892944 0.937500
vt 0.946045 0.937500
vt 0.946045 1.000000
vt 0.946655 1.000000
vt 0.946655 0.937500
vt 0.966553 0.937500
vt 0.966553 1.000000

usemtl texture
f 11/11/1 1/1/1 2/2/1
f 11/11/1 2/2/1 3/3/1
f 11/11/1 3/3/1 4/4/1
f 11/11/1 4/4/1 5/5/1
f 5/5/1 6/6/1 7/7/1
f 5/5/1 7/7/1 8/8/1
f 5/5/1 8/8/1 9/9/1
f 5/5/1 9/9/1 10/10/1
f 5/5/1 10/10/1 11/11/1
f 2/15/2 1/12/2 12/13/2
f 2/15/2 12/13/2 13/14/2
f 3/19/3 2/16/3 13/17/3
f 3/19/3 13/17/3 14/18/3
f 4/23/4 3/20/4 14/21/4
f 4/23/4 14/21/4 15/22/4
f 5/27/5 4/24/5 15/25/5
f 5/27/5 15/25/5 16/26/5
f 6/31/6 5/28/6 16/29/6
f 6/31/6 16/29/6 17/30/6
f 7/35/7 6/32/7 17/33/7
f 7/35/7 17/33/7 18/34/7
f 8/39/8 7/36/8 18/37/8
f 8/39/8 18/37/8 19/38/8
f 9/43/9 8/40/9 19/41/9
f 9/43/9 19/41/9 20/42/9
f 10/47/10 9/44/10 20/45/10
f 10/47/10 20/45/10 21/46/10
f 11/51/11 10/48/11 21/49/11
f 11/51/11 21/49/11 22/50/11
f 1/55/12 11/52/12 22/53/12
f 1/55/12 22/53/12 12/54/12

# g
# Face_Normal
vn 0.000000 0.000000 1.000000
vn 0.707107 0.707107 0.000000
vn -0.693642 0.720320 0.000000
vn -0.980581 -0.196116 -0.000000
vn -0.980581 -0.196116 -0.000000
vn -0.316228 0.948683 0.000000
vn -0.992278 -0.124035 -0.000000
vn 0.316228 -0.948683 0.000000
vn 0.688749 -0.724999 0.000000
vn 1.000000 -0.000000 0.000000
vn 0.707107 0.707107 0.000000
vn 0.993884 0.110432 0.000000
vn 0.496139 0.868243 0.000000
vn 1.000000 -0.000000 0.000000
vn -0.419058 0.907959 0.000000

# Face_Vertex_Texel
vt 0.967407 0.973389
vt 0.967163 0.973267
vt 0.967896 0.950317
vt 0.968994 0.949097
vt 0.973267 0.944214
vt 0.973022 0.942383
vt 0.976196 0.937744
vt 0.977417 0.947144
vt 0.975464 0.997437
vt 0.975098 0.998169
vt 0.973877 0.997559
vt 0.972168 1.000000
vt 0.970337 0.997925
vt 0.969604 0.999268
vt 0.978149 1.000000
vt 0.978149 0.937500
vt 0.986572 0.937500
vt 0.986572 1.000000
vt 0.000000 0.903320
vt 0.000000 0.840820
vt 0.056519 0.840820
vt 0.056519 0.903320
vt 0.057129 0.903320
vt 0.057129 0.840820
vt 0.070557 0.840820
vt 0.070557 0.903320
vt 0.071167 0.903320
vt 0.071167 0.840820
vt 0.104858 0.840820
vt 0.104858 0.903320
vt 0.105469 0.903320
vt 0.105469 0.840820
vt 0.116211 0.840820
vt 0.116211 0.903320
vt 0.116821 0.903320
vt 0.116821 0.840820
vt 0.144897 0.840820
vt 0.144897 0.903320
vt 0.145508 0.903320
vt 0.145508 0.840820
vt 0.173096 0.840820
vt 0.173096 0.903320
vt 0.173706 0.903320
vt 0.173706 0.869995
vt 0.236206 0.869995
vt 0.236206 0.903320
vt 0.236816 0.903320
vt 0.236816 0.840820
vt 0.246094 0.840820
vt 0.246094 0.903320
vt 0.246704 0.903320
vt 0.246704 0.840820
vt 0.260864 0.840820
vt 0.260864 0.903320
vt 0.261475 0.903320
vt 0.261475 0.840820
vt 0.280151 0.840820
vt 0.280151 0.903320
vt 0.280762 0.903320
vt 0.280762 0.840820
vt 0.298096 0.840820
vt 0.298096 0.903320
vt 0.298706 0.903320
vt 0.298706 0.840820
vt 0.310669 0.840820
vt 0.310669 0.903320
vt 0.311279 0.903320
vt 0.311279 0.842163
vt 0.373779 0.842163
vt 0.373779 0.903320

f 23/56/13 24/57/13 25/58/13
f 23/56/13 25/58/13 26/59/13
f 23/56/13 26/59/13 27/60/13
f 27/60/13 28/61/13 29/62/13
f 27/60/13 29/62/13 30/63/13
f 27/60/13 30/63/13 31/64/13
f 27/60/13 31/64/13 32/65/13
f 27/60/13 32/65/13 33/66/13
f 27/60/13 33/66/13 34/67/13
f 27/60/13 34/67/13 35/68/13
f 27/60/13 35/68/13 36/69/13
f 27/60/13 36/69/13 23/56/13
f 24/73/14 23/70/14 37/71/14
f 24/73/14 37/71/14 38/72/14
f 25/77/15 24/74/15 38/75/15
f 25/77/15 38/75/15 39/76/15
f 26/81/16 25/78/16 39/79/16
f 26/81/16 39/79/16 40/80/16
f 27/85/17 26/82/17 40/83/17
f 27/85/17 40/83/17 41/84/17
f 28/89/18 27/86/18 41/87/18
f 28/89/18 41/87/18 42/88/18
f 29/93/19 28/90/19 42/91/19
f 29/93/19 42/91/19 43/92/19
f 30/97/20 29/94/20 43/95/20
f 30/97/20 43/95/20 44/96/20
f 31/101/21 30/98/21 44/99/21
f 31/101/21 44/99/21 45/100/21
f 32/105/22 31/102/22 45/103/22
f 32/105/22 45/103/22 46/104/22
f 33/109/23 32/106/23 46/107/23
f 33/109/23 46/107/23 47/108/23
f 34/113/24 33/110/24 47/111/24
f 34/113/24 47/111/24 48/112/24
f 35/117/25 34/114/25 48/115/25
f 35/117/25 48/115/25 49/116/25
f 36/121/26 35/118/26 49/119/26
f 36/121/26 49/119/26 50/120/26
f 23/125/27 36/122/27 50/123/27
f 23/125/27 50/123/27 37/124/27

# g
# Face_Normal
vn 0.000000 -0.000000 1.000000
vn -1.000000 -0.000000 -0.000000
vn 0.000000 1.000000 0.000000
vn -0.609711 0.792624 0.000000
vn -0.184289 0.982872 0.000000
vn -0.707107 0.707107 0.000000
vn -0.759257 0.650791 0.000000
vn -1.000000 -0.000000 -0.000000
vn -0.707107 0.707107 0.000000
vn -0.789352 -0.613941 -0.000000
vn -0.780869 -0.624695 -0.000000
vn 0.000000 -1.000000 0.000000
vn 0.278810 -0.960346 0.000000
vn 0.894427 -0.447214 0.000000
vn 0.752577 0.658505 0.000000
vn -0.447214 0.894427 0.000000
vn 0.992278 0.124035 0.000000
vn 0.998618 0.052559 0.000000
vn 0.485643 0.874157 0.000000

# Face_Vertex_Texel
vt 0.379761 0.896973
vt 0.380371 0.896606
vt 0.376587 0.886719
vt 0.380127 0.875732
vt 0.377930 0.864014
vt 0.385132 0.849243
vt 0.388550 0.847778
vt 0.389282 0.847778
vt 0.390259 0.847778
vt 0.407104 0.847778
vt 0.411743 0.849121
vt 0.412842 0.852661
vt 0.414673 0.899170
vt 0.411865 0.902344
vt 0.404419 0.899292
vt 0.404663 0.897827
vt 0.398804 0.898804
vt 0.385498 0.901733
vt 0.415283 0.903320
vt 0.415283 0.840820
vt 0.423218 0.840820
vt 0.423218 0.903320
vt 0.423828 0.903320
vt 0.423828 0.840820
vt 0.450439 0.840820
vt 0.450439 0.903320
vt 0.451050 0.903320
vt 0.451050 0.840820
vt 0.479492 0.840820
vt 0.479492 0.903320
vt 0.480103 0.903320
vt 0.480103 0.840820
vt 0.508301 0.840820
vt 0.508301 0.903320
vt 0.508911 0.903320
vt 0.508911 0.840820
vt 0.545654 0.840820
vt 0.545654 0.903320
vt 0.546265 0.903320
vt 0.546265 0.840820
vt 0.565186 0.840820
vt 0.565186 0.903320
vt 0.565796 0.903320
vt 0.565796 0.840820
vt 0.573730 0.840820
vt 0.573730 0.903320
vt 0.574341 0.903320
vt 0.574341 0.840820
vt 0.584717 0.840820
vt 0.584717 0.903320
vt 0.585327 0.903320
vt 0.585327 0.840820
vt 0.622314 0.840820
vt 0.622314 0.903320
vt 0.622925 0.903320
vt 0.622925 0.840820
vt 0.638062 0.840820
vt 0.638062 0.903320
vt 0.638672 0.903320
vt 0.638672 0.840820
vt 0.651978 0.840820
vt 0.651978 0.903320
vt 0.652588 0.903320
vt 0.652588 0.861206
vt 0.715088 0.861206
vt 0.715088 0.903320
vt 0.715698 0.903320
vt 0.715698 0.840820
vt 0.731201 0.840820
vt 0.731201 0.903320
vt 0.731812 0.903320
vt 0.731812 0.840820
vt 0.752563 0.840820
vt 0.752563 0.903320
vt 0.753174 0.903320
vt 0.753174 0.840820
vt 0.762695 0.840820
vt 0.762695 0.903320
vt 0.763306 0.903320
vt 0.763306 0.840820
vt 0.780640 0.840820
vt 0.780640 0.903320
vt 0.781250 0.903320
vt 0.781250 0.840820
vt 0.813110 0.840820
vt 0.813110 0.903320
vt 0.813721 0.903320
vt 0.813721 0.840820
vt 0.833984 0.840820
vt 0.833984 0.903320

f 68/143/28 51/126/28 52/127/28
f 68/143/28 52/127/28 53/128/28
f 68/143/28 53/128/28 54/129/28
f 54/129/28 55/130/28 56/131/28
f 54/129/28 56/131/28 57/132/28
f 58/133/28 59/134/28 60/135/28
f 58/133/28 60/135/28 61/136/28
f 58/133/28 61/136/28 62/137/28
f 58/133/28 62/137/28 63/138/28
f 58/133/28 63/138/28 64/139/28
f 58/133/28 64/139/28 65/140/28
f 58/133/28 65/140/28 66/141/28
f 58/133/28 66/141/28 67/142/28
f 58/133/28 67/142/28 68/143/28
f 58/133/28 68/143/28 54/129/28
f 58/133/28 54/129/28 57/132/28
f 52/147/29 51/144/29 69/145/29
f 52/147/29 69/145/29 70/146/29
f 53/151/30 52/148/30 70/149/30
f 53/151/30 70/149/30 71/150/30
f 54/155/31 53/152/31 71/153/31
f 54/155/31 71/153/31 72/154/31
f 55/159/32 54/156/32 72/157/32
f 55/159/32 72/157/32 73/158/32
f 56/163/33 55/160/33 73/161/33
f 56/163/33 73/161/33 74/162/33
f 57/167/34 56/164/34 74/165/34
f 57/167/34 74/165/34 75/166/34
f 58/171/35 57/168/35 75/169/35
f 58/171/35 75/169/35 76/170/35
f 59/175/36 58/172/36 76/173/36
f 59/175/36 76/173/36 77/174/36
f 60/179/37 59/176/37 77/177/37
f 60/179/37 77/177/37 78/178/37
f 61/183/38 60/180/38 78/181/38
f 61/183/38 78/181/38 79/182/38
f 62/187/39 61/184/39 79/185/39
f 62/187/39 79/185/39 80/186/39
f 63/191/40 62/188/40 80/189/40
f 63/191/40 80/189/40 81/190/40
f 64/195/41 63/192/41 81/193/41
f 64/195/41 81/193/41 82/194/41
f 65/199/42 64/196/42 82/197/42
f 65/199/42 82/197/42 83/198/42
f 66/203/43 65/200/43 83/201/43
f 66/203/43 83/201/43 84/202/43
f 67/207/44 66/204/44 84/205/44
f 67/207/44 84/205/44 85/206/44
f 68/211/45 67/208/45 85/209/45
f 68/211/45 85/209/45 86/210/45
f 51/215/46 68/212/46 86/213/46
f 51/215/46 86/213/46 69/214/46

# g
# Face_Normal
vn -0.000000 -0.000000 1.000000
vn -1.000000 -0.000000 -0.000000
vn -0.259129 0.965843 0.000000
vn -0.527363 0.849640 0.000000
vn -1.000000 -0.000000 -0.000000
vn -0.964764 0.263117 0.000000
vn 0.000000 1.000000 0.000000
vn -0.707107 -0.707107 -0.000000
vn -0.970142 -0.242536 -0.000000
vn -0.543251 -0.839570 -0.000000
vn -0.961524 0.274721 0.000000
vn -0.948683 -0.316228 -0.000000
vn 0.941742 -0.336336 0.000000
vn 0.424434 -0.905459 0.000000
vn 0.804176 -0.594391 0.000000
vn 0.707107 0.707107 0.000000
vn 0.992278 -0.124035 0.000000
vn 0.857493 -0.514496 0.000000
vn 0.832050 0.554700 0.000000
vn 0.868243 0.496139 0.000000
vn 0.000000 1.000000 0.000000

# Face_Vertex_Texel
vt 0.842285 0.903320
vt 0.848999 0.897949
vt 0.837036 0.868042
vt 0.834839 0.841675
vt 0.836060 0.840698
vt 0.841309 0.833252
vt 0.840454 0.832153
vt 0.841553 0.832275
vt 0.847290 0.829346
vt 0.861816 0.833862
vt 0.865112 0.829102
vt 0.867065 0.828369
vt 0.863403 0.837280
vt 0.867065 0.863892
vt 0.862549 0.885742
vt 0.861450 0.885620
vt 0.857056 0.890137
vt 0.851929 0.903198
vt 0.849243 0.903320
vt 0.843140 0.903320
vt 0.867676 0.903320
vt 0.867676 0.840820
vt 0.885132 0.840820
vt 0.885132 0.903320
vt 0.885742 0.903320
vt 0.885742 0.840820
vt 0.937744 0.840820
vt 0.937744 0.903320
vt 0.938354 0.903320
vt 0.938354 0.840820
vt 0.981201 0.840820
vt 0.981201 0.903320
vt 0.981812 0.903320
vt 0.981812 0.840820
vt 0.989380 0.840820
vt 0.989380 0.903320
vt 0.000000 0.827759
vt 0.000000 0.765259
vt 0.017944 0.765259
vt 0.017944 0.827759
vt 0.018555 0.827759
vt 0.018555 0.765259
vt 0.026123 0.765259
vt 0.026123 0.827759
vt 0.026733 0.827759
vt 0.026733 0.765259
vt 0.033691 0.765259
vt 0.033691 0.827759
vt 0.034302 0.827759
vt 0.034302 0.765259
vt 0.048828 0.765259
vt 0.048828 0.827759
vt 0.049438 0.827759
vt 0.049438 0.765259
vt 0.077026 0.765259
vt 0.077026 0.827759
vt 0.077637 0.827759
vt 0.077637 0.765259
vt 0.091064 0.765259
vt 0.091064 0.827759
vt 0.091675 0.827759
vt 0.091675 0.765259
vt 0.104004 0.765259
vt 0.104004 0.827759
vt 0.104614 0.827759
vt 0.104614 0.765259
vt 0.126343 0.765259
vt 0.126343 0.827759
vt 0.126953 0.827759
vt 0.126953 0.765259
vt 0.171143 0.765259
vt 0.171143 0.827759
vt 0.171753 0.827759
vt 0.171753 0.765259
vt 0.208618 0.765259
vt 0.208618 0.827759
vt 0.209229 0.827759
vt 0.209229 0.765259
vt 0.216187 0.765259
vt 0.216187 0.827759
vt 0.216797 0.827759
vt 0.216797 0.765259
vt 0.231079 0.765259
vt 0.231079 0.827759
vt 0.231689 0.827759
vt 0.231689 0.765259
vt 0.256348 0.765259
vt 0.256348 0.827759
vt 0.256958 0.827759
vt 0.256958 0.765259
vt 0.266357 0.765259
vt 0.266357 0.827759
vt 0.266968 0.827759
vt 0.266968 0.765259
vt 0.281250 0.765259
vt 0.281250 0.827759
vt 0.281860 0.827759
vt 0.281860 0.765259
vt 0.289429 0.765259
vt 0.289429 0.827759

f 106/235/47 87/216/47 88/217/47
f 88/217/47 89/218/47 90/219/47
f 88/217/47 90/219/47 91/220/47
f 88/217/47 91/220/47 92/221/47
f 92/221/47 93/222/47 94/223/47
f 92/221/47 94/223/47 95/224/47
f 92/221/47 95/224/47 96/225/47
f 96/225/47 97/226/47 98/227/47
f 96/225/47 98/227/47 99/228/47
f 96/225/47 99/228/47 100/229/47
f 96/225/47 100/229/47 101/230/47
f 96/225/47 101/230/47 102/231/47
f 96/225/47 102/231/47 103/232/47
f 96/225/47 103/232/47 104/233/47
f 96/225/47 104/233/47 105/234/47
f 105/234/47 106/235/47 88/217/47
f 105/234/47 88/217/47 92/221/47
f 105/234/47 92/221/47 96/225/47
f 88/239/48 87/236/48 107/237/48
f 88/239/48 107/237/48 108/238/48
f 89/243/49 88/240/49 108/241/49
f 89/243/49 108/241/49 109/242/49
f 90/247/50 89/244/50 109/245/50
f 90/247/50 109/245/50 110/246/50
f 91/251/51 90/248/51 110/249/51
f 91/251/51 110/249/51 111/250/51
f 92/255/52 91/252/52 111/253/52
f 92/255/52 111/253/52 112/254/52
f 93/259/53 92/256/53 112/257/53
f 93/259/53 112/257/53 113/258/53
f 94/263/54 93/260/54 113/261/54
f 94/263/54 113/261/54 114/262/54
f 95/267/55 94/264/55 114/265/55
f 95/267/55 114/265/55 115/266/55
f 96/271/56 95/268/56 115/269/56
f 96/271/56 115/269/56 116/270/56
f 97/275/57 96/272/57 116/273/57
f 97/275/57 116/273/57 117/274/57
f 98/279/58 97/276/58 117/277/58
f 98/279/58 117/277/58 118/278/58
f 99/283/59 98/280/59 118/281/59
f 99/283/59 118/281/59 119/282/59
f 100/287/60 99/284/60 119/285/60
f 100/287/60 119/285/60 120/286/60
f 101/291/61 100/288/61 120/289/61
f 101/291/61 120/289/61 121/290/61
f 102/295/62 101/292/62 121/293/62
f 102/295/62 121/293/62 122/294/62
f 103/299/63 102/296/63 122/297/63
f 103/299/63 122/297/63 123/298/63
f 104/303/64 103/300/64 123/301/64
f 104/303/64 123/301/64 124/302/64
f 105/307/65 104/304/65 124/305/65
f 105/307/65 124/305/65 125/306/65
f 106/311/66 105/308/66 125/309/66
f 106/311/66 125/309/66 126/310/66
f 87/315/67 106/312/67 126/313/67
f 87/315/67 126/313/67 107/314/67
