# OBJ file generated
mtllib TextureModel_BLD_Body_3.mtl

v 317699.493767 4154881.250000 45.407843
v 317690.193767 4154874.750000 45.407843
v 317681.593766 4154867.250000 45.407843
v 317654.493765 4154847.750000 45.407843
v 317652.893765 4154846.250000 45.407843
v 317649.693765 4154843.750000 45.407843
v 317648.193765 4154842.950000 45.407843
v 317646.393764 4154841.750000 45.407843
v 317641.393764 4154837.950000 45.407843
v 317638.893764 4154835.250000 45.407843
v 317639.093764 4154834.750000 45.407843
v 317639.993764 4154832.450000 45.407843
v 317641.993764 4154829.250000 45.407843
v 317645.893764 4154825.650000 45.407843
v 317674.793766 4154847.250000 45.407843
v 317678.393766 4154844.750000 45.407843
v 317684.393767 4154849.850000 45.407843
v 317682.393766 4154852.650000 45.407843
v 317682.393766 4154854.050000 45.407843
v 317705.393768 4154871.950000 45.407843
v 317705.893768 4154872.450000 45.407843
v 317699.493767 4154881.250000 30.000000
v 317690.193767 4154874.750000 30.000000
v 317681.593766 4154867.250000 30.000000
v 317654.493765 4154847.750000 30.000000
v 317652.893765 4154846.250000 30.000000
v 317649.693765 4154843.750000 30.000000
v 317648.193765 4154842.950000 30.000000
v 317646.393764 4154841.750000 30.000000
v 317641.393764 4154837.950000 30.000000
v 317638.893764 4154835.250000 30.000000
v 317639.093764 4154834.750000 30.000000
v 317639.993764 4154832.450000 30.000000
v 317641.993764 4154829.250000 30.000000
v 317645.893764 4154825.650000 30.000000
v 317674.793766 4154847.250000 30.000000
v 317678.393766 4154844.750000 30.000000
v 317684.393767 4154849.850000 30.000000
v 317682.393766 4154852.650000 30.000000
v 317682.393766 4154854.050000 30.000000
v 317705.393768 4154871.950000 30.000000
v 317705.893768 4154872.450000 30.000000

# g
# Face_Normal
vn 0.000000 0.000000 1.000000
vn -0.572871 0.819646 0.000000
vn -0.657263 0.753661 0.000000
vn -0.584068 0.811705 0.000000
vn -0.683941 0.729537 0.000000
vn -0.615644 0.788024 0.000000
vn -0.470588 0.882353 0.000000
vn -0.554700 0.832050 0.000000
vn -0.605083 0.796162 0.000000
vn -0.733761 0.679408 0.000000
vn -0.928477 -0.371391 -0.000000
vn -0.931243 -0.364399 -0.000000
vn -0.847998 -0.529999 -0.000000
vn -0.678280 -0.734803 -0.000000
vn 0.598669 -0.800997 0.000000
vn -0.570396 -0.821370 -0.000000
vn 0.647648 -0.761939 0.000000
vn 0.813733 0.581238 0.000000
vn 1.000000 -0.000000 0.000000
vn 0.614178 -0.789167 0.000000
vn 0.707107 -0.707107 0.000000
vn 0.808736 0.588172 0.000000

# Face_Vertex_Texel
vt 0.000000 1.000000
vt 0.000000 0.937744
vt 0.000000 0.874146
vt 0.000000 0.688354
vt 0.000000 0.676270
vt 0.000000 0.653931
vt 0.000000 0.644653
vt 0.000000 0.632690
vt 0.000000 0.598145
vt 0.002563 0.578247
vt 0.005371 0.577637
vt 0.018677 0.574463
vt 0.039551 0.573364
vt 0.068237 0.579712
vt 0.062256 0.778809
vt 0.085205 0.787109
vt 0.081055 0.830688
vt 0.061890 0.830688
vt 0.055542 0.835205
vt 0.047363 0.998047
vt 0.046631 1.000000
vt 0.088379 1.000000
vt 0.088379 0.937500
vt 0.134888 0.937500
vt 0.134888 1.000000
vt 0.135498 1.000000
vt 0.135498 0.937500
vt 0.182251 0.937500
vt 0.182251 1.000000
vt 0.182861 1.000000
vt 0.182861 0.970703
vt 0.245361 0.970703
vt 0.245361 1.000000
vt 0.245972 1.000000
vt 0.245972 0.937500
vt 0.256470 0.937500
vt 0.256470 1.000000
vt 0.257080 1.000000
vt 0.257080 0.937500
vt 0.274902 0.937500
vt 0.274902 1.000000
vt 0.275513 1.000000
vt 0.275513 0.937500
vt 0.284058 0.937500
vt 0.284058 1.000000
vt 0.284668 1.000000
vt 0.284668 0.937500
vt 0.295044 0.937500
vt 0.295044 1.000000
vt 0.295654 1.000000
vt 0.295654 0.937500
vt 0.322266 0.937500
vt 0.322266 1.000000
vt 0.322876 1.000000
vt 0.322876 0.937500
vt 0.339233 0.937500
vt 0.339233 1.000000
vt 0.339844 1.000000
vt 0.339844 0.937500
vt 0.343872 0.937500
vt 0.343872 1.000000
vt 0.344482 1.000000
vt 0.344482 0.937500
vt 0.356079 0.937500
vt 0.356079 1.000000
vt 0.356689 1.000000
vt 0.356689 0.937500
vt 0.373413 0.937500
vt 0.373413 1.000000
vt 0.374023 1.000000
vt 0.374023 0.937500
vt 0.396729 0.937500
vt 0.396729 1.000000
vt 0.397339 1.000000
vt 0.397339 0.972900
vt 0.459839 0.972900
vt 0.459839 1.000000
vt 0.460449 1.000000
vt 0.460449 0.937500
vt 0.479614 0.937500
vt 0.479614 1.000000
vt 0.480225 1.000000
vt 0.480225 0.937500
vt 0.513062 0.937500
vt 0.513062 1.000000
vt 0.513672 1.000000
vt 0.513672 0.937500
vt 0.529053 0.937500
vt 0.529053 1.000000
vt 0.529663 1.000000
vt 0.529663 0.937500
vt 0.537109 0.937500
vt 0.537109 1.000000
vt 0.537720 1.000000
vt 0.537720 0.966553
vt 0.600220 0.966553
vt 0.600220 1.000000
vt 0.600830 1.000000
vt 0.600830 0.937500
vt 0.605469 0.937500
vt 0.605469 1.000000
vt 0.606079 1.000000
vt 0.606079 0.937500
vt 0.650757 0.937500
vt 0.650757 1.000000

usemtl texture
f 21/21/1 1/1/1 2/2/1
f 21/21/1 2/2/1 3/3/1
f 21/21/1 3/3/1 4/4/1
f 21/21/1 4/4/1 5/5/1
f 21/21/1 5/5/1 6/6/1
f 6/6/1 7/7/1 8/8/1
f 6/6/1 8/8/1 9/9/1
f 6/6/1 9/9/1 10/10/1
f 6/6/1 10/10/1 11/11/1
f 6/6/1 11/11/1 12/12/1
f 6/6/1 12/12/1 13/13/1
f 6/6/1 13/13/1 14/14/1
f 6/6/1 14/14/1 15/15/1
f 15/15/1 16/16/1 17/17/1
f 15/15/1 17/17/1 18/18/1
f 15/15/1 18/18/1 19/19/1
f 19/19/1 20/20/1 21/21/1
f 19/19/1 21/21/1 6/6/1
f 19/19/1 6/6/1 15/15/1
f 2/25/2 1/22/2 22/23/2
f 2/25/2 22/23/2 23/24/2
f 3/29/3 2/26/3 23/27/3
f 3/29/3 23/27/3 24/28/3
f 4/33/4 3/30/4 24/31/4
f 4/33/4 24/31/4 25/32/4
f 5/37/5 4/34/5 25/35/5
f 5/37/5 25/35/5 26/36/5
f 6/41/6 5/38/6 26/39/6
f 6/41/6 26/39/6 27/40/6
f 7/45/7 6/42/7 27/43/7
f 7/45/7 27/43/7 28/44/7
f 8/49/8 7/46/8 28/47/8
f 8/49/8 28/47/8 29/48/8
f 9/53/9 8/50/9 29/51/9
f 9/53/9 29/51/9 30/52/9
f 10/57/10 9/54/10 30/55/10
f 10/57/10 30/55/10 31/56/10
f 11/61/11 10/58/11 31/59/11
f 11/61/11 31/59/11 32/60/11
f 12/65/12 11/62/12 32/63/12
f 12/65/12 32/63/12 33/64/12
f 13/69/13 12/66/13 33/67/13
f 13/69/13 33/67/13 34/68/13
f 14/73/14 13/70/14 34/71/14
f 14/73/14 34/71/14 35/72/14
f 15/77/15 14/74/15 35/75/15
f 15/77/15 35/75/15 36/76/15
f 16/81/16 15/78/16 36/79/16
f 16/81/16 36/79/16 37/80/16
f 17/85/17 16/82/17 37/83/17
f 17/85/17 37/83/17 38/84/17
f 18/89/18 17/86/18 38/87/18
f 18/89/18 38/87/18 39/88/18
f 19/93/19 18/90/19 39/91/19
f 19/93/19 39/91/19 40/92/19
f 20/97/20 19/94/20 40/95/20
f 20/97/20 40/95/20 41/96/20
f 21/101/21 20/98/21 41/99/21
f 21/101/21 41/99/21 42/100/21
f 1/105/22 21/102/22 42/103/22
f 1/105/22 42/103/22 22/104/22
