{"asset":{"version":"2.0","generator":"THREE.GLTFExporter"},"scenes":[{"name":"AuxScene","nodes":[2]}],"scene":0,"nodes":[{"name":"BuildingMaster_1971194381524464055500000000_0","mesh":0},{"name":"BuildingMaster_1971194381524464055500000000_1","mesh":1},{"children":[0,1]}],"bufferViews":[{"buffer":0,"byteOffset":0,"byteLength":1008,"target":34962,"byteStride":12},{"buffer":0,"byteOffset":1008,"byteLength":1008,"target":34962,"byteStride":12},{"buffer":0,"byteOffset":2016,"byteLength":672,"target":34962,"byteStride":8},{"buffer":0,"byteOffset":2688,"byteLength":432,"target":34962,"byteStride":12},{"buffer":0,"byteOffset":3120,"byteLength":432,"target":34962,"byteStride":12},{"buffer":0,"byteOffset":3552,"byteLength":288,"target":34962,"byteStride":8}],"buffers":[{"byteLength":3840,"uri":"data:application/octet-stream;base64,"}],"accessors":[{"bufferView":0,"componentType":5126,"count":84,"max":[-3043795.75,4048522,3863379.5],"min":[-3043835.25,4048474.75,3863334],"type":"VEC3"},{"bufferView":1,"componentType":5126,"count":84,"max":[0.8049686551094055,0,0.7869278192520142],"min":[-0.7826209664344788,0,-0.7920507788658142],"type":"VEC3"},{"bufferView":2,"componentType":5126,"count":84,"max":[0.99609375,1],"min":[0,0],"type":"VEC2"},{"bufferView":3,"componentType":5126,"count":36,"max":[-3043795.75,4048522,3863379.5],"min":[-3043835.25,4048474.75,3863379.5],"type":"VEC3"},{"bufferView":4,"componentType":5126,"count":36,"max":[0,1,0],"min":[0,1,0],"type":"VEC3"},{"bufferView":5,"componentType":5126,"count":36,"max":[10.034660339355469,10.005263328552246],"min":[0,0],"type":"VEC2"}],"materials":[{"pbrMetallicRoughness":{"metallicFactor":0.5,"roughnessFactor":0.5,"baseColorTexture":{"index":0}},"emissiveFactor":[1,1,1],"name":"BuildingMaster_1971194381524464055500000000_Volume1"},{"pbrMetallicRoughness":{"metallicFactor":0.5,"roughnessFactor":0.5,"baseColorTexture":{"index":1}},"name":"Roof1"}],"textures":[{"sampler":0,"source":0},{"sampler":1,"source":1}],"samplers":[{"magFilter":9729,"minFilter":9987,"wrapS":10497,"wrapT":10497},{"magFilter":9729,"minFilter":9987,"wrapS":10497,"wrapT":10497}],"images":[{"mimeType":"image/jpeg","uri":"file:///H:/OpenLab/%EB%8F%84%EB%A1%9C3D_%EC%97%AC%EC%9D%98%EB%8F%84%20%EB%8D%B0%EC%9D%B4%ED%84%B0/%EA%B1%B4%EB%AC%BC%ED%86%B5%ED%95%A9%EC%A0%95%EB%B3%B4%EB%A7%88%EC%8A%A4%ED%84%B0/Resource/BuildingMaster_1971194381524464055500000000_Volume1_Diffuse.jpg"},{"mimeType":"image/jpeg","uri":"file:///H:/OpenLab/%EB%8F%84%EB%A1%9C3D_%EC%97%AC%EC%9D%98%EB%8F%84%20%EB%8D%B0%EC%9D%B4%ED%84%B0/%EA%B1%B4%EB%AC%BC%ED%86%B5%ED%95%A9%EC%A0%95%EB%B3%B4%EB%A7%88%EC%8A%A4%ED%84%B0/Resource/Roof1_Diffuse.jpg"}],"meshes":[{"primitives":[{"mode":4,"attributes":{"POSITION":0,"NORMAL":1,"TEXCOORD_0":2},"material":0}]},{"primitives":[{"mode":4,"attributes":{"POSITION":3,"NORMAL":4,"TEXCOORD_0":5},"material":1}]}]}