{"asset":{"version":"2.0","generator":"THREE.GLTFExporter"},"scenes":[{"name":"AuxScene","nodes":[2]}],"scene":0,"nodes":[{"name":"BuildingMaster_1980193706994462679300000000_0","mesh":0},{"name":"BuildingMaster_1980193706994462679300000000_1","mesh":1},{"children":[0,1]}],"bufferViews":[{"buffer":0,"byteOffset":0,"byteLength":1584,"target":34962,"byteStride":12},{"buffer":0,"byteOffset":1584,"byteLength":1584,"target":34962,"byteStride":12},{"buffer":0,"byteOffset":3168,"byteLength":1056,"target":34962,"byteStride":8},{"buffer":0,"byteOffset":4224,"byteLength":720,"target":34962,"byteStride":12},{"buffer":0,"byteOffset":4944,"byteLength":720,"target":34962,"byteStride":12},{"buffer":0,"byteOffset":5664,"byteLength":480,"target":34962,"byteStride":8}],"buffers":[{"byteLength":6144,"uri":"data:application/octet-stream;base64,"}],"accessors":[{"bufferView":0,"componentType":5126,"count":132,"max":[-3043255.5,4049032.75,3863258.25],"min":[-3043389,4048902,3863223.25],"type":"VEC3"},{"bufferView":1,"componentType":5126,"count":132,"max":[0.9937791228294373,0,1],"min":[-0.9988681077957153,0,-0.9995925426483154],"type":"VEC3"},{"bufferView":2,"componentType":5126,"count":132,"max":[0.84375,0.82177734375],"min":[0,0],"type":"VEC2"},{"bufferView":3,"componentType":5126,"count":60,"max":[-3043255.5,4049032.75,3863258.25],"min":[-3043389,4048902,3863258],"type":"VEC3"},{"bufferView":4,"componentType":5126,"count":60,"max":[0,1,0],"min":[0,1,0],"type":"VEC3"},{"bufferView":5,"componentType":5126,"count":60,"max":[10.079976081848145,10.000000953674316],"min":[0,0],"type":"VEC2"}],"materials":[{"pbrMetallicRoughness":{"metallicFactor":0.5,"roughnessFactor":0.5,"baseColorTexture":{"index":0}},"emissiveFactor":[1,1,1],"name":"BuildingMaster_1980193706994462679300000000_Volume1"},{"pbrMetallicRoughness":{"metallicFactor":0.5,"roughnessFactor":0.5,"baseColorTexture":{"index":1}},"name":"Roof3"}],"textures":[{"sampler":0,"source":0},{"sampler":1,"source":1}],"samplers":[{"magFilter":9729,"minFilter":9987,"wrapS":10497,"wrapT":10497},{"magFilter":9729,"minFilter":9987,"wrapS":10497,"wrapT":10497}],"images":[{"mimeType":"image/jpeg","uri":"file:///H:/OpenLab/%EB%8F%84%EB%A1%9C3D_%EC%97%AC%EC%9D%98%EB%8F%84%20%EB%8D%B0%EC%9D%B4%ED%84%B0/%EA%B1%B4%EB%AC%BC%ED%86%B5%ED%95%A9%EC%A0%95%EB%B3%B4%EB%A7%88%EC%8A%A4%ED%84%B0/Resource/BuildingMaster_1980193706994462679300000000_Volume1_Diffuse.jpg"},{"mimeType":"image/jpeg","uri":"file:///H:/OpenLab/%EB%8F%84%EB%A1%9C3D_%EC%97%AC%EC%9D%98%EB%8F%84%20%EB%8D%B0%EC%9D%B4%ED%84%B0/%EA%B1%B4%EB%AC%BC%ED%86%B5%ED%95%A9%EC%A0%95%EB%B3%B4%EB%A7%88%EC%8A%A4%ED%84%B0/Resource/Roof3_Diffuse.jpg"}],"meshes":[{"primitives":[{"mode":4,"attributes":{"POSITION":0,"NORMAL":1,"TEXCOORD_0":2},"material":0}]},{"primitives":[{"mode":4,"attributes":{"POSITION":3,"NORMAL":4,"TEXCOORD_0":5},"material":1}]}]}